/* XPM */
static char *_553794538130[] = {
/* columns rows colors chars-per-pixel */
"64 64 77 1 ",
"  c #1B1546",
". c #1D1749",
"X c #1E184A",
"o c #241F47",
"O c #231C4C",
"+ c #281F4E",
"@ c #271E50",
"# c #281F50",
"$ c #26214A",
"% c #2B234C",
"& c #2F284D",
"* c #30264E",
"= c #332A4E",
"- c #392E4E",
"; c #3D314E",
": c #2D2350",
"> c #312751",
", c #352A51",
"< c #3A2F50",
"1 c #3C2F58",
"2 c #3C3051",
"3 c #3E3158",
"4 c #43354D",
"5 c #47384C",
"6 c #4B3B4C",
"7 c #503F4D",
"8 c #433554",
"9 c #463952",
"0 c #4B3C53",
"q c #423459",
"w c #4A3B59",
"e c #503F52",
"r c #574347",
"t c #55434B",
"y c #59464C",
"u c #5D494C",
"i c #4E4054",
"p c #534354",
"a c #594753",
"s c #574850",
"d c #5C4951",
"f c #52415A",
"g c #5A475A",
"h c #5E4A5A",
"j c #624E4C",
"k c #66514C",
"l c #6B544B",
"z c #6E584C",
"x c #735B4C",
"c c #795E4C",
"v c #644E55",
"b c #624D59",
"n c #6D5552",
"m c #735E52",
"M c #77604B",
"N c #7C624B",
"B c #776252",
"V c #7C6052",
"C c #82664B",
"Z c #86694A",
"A c #8C6E4B",
"S c #8B7147",
"D c #8D704B",
"F c #93744B",
"G c #99774A",
"H c #957949",
"J c #9C7C4A",
"K c #866D50",
"L c #A27E4C",
"P c #9F8148",
"I c #A5834C",
"U c #A8874D",
"Y c #AC8B4E",
"T c #AD8C50",
"R c #B18F50",
"E c #B39251",
"W c #B89652",
/* pixels */
"41LJzjZrrFFcA755cl44->:*%$$%@+o,*%*&&$$%$$,Vv64pvu55666654;,;<$.",
"41LFjzzkjLjrGC6jrA645=%**%%%%O$,,%*$%$$$$$>Kl5tly5;;2;;;55422-$.",
"81LFkLlkZC7kjA7l7Fl-5=#=%%*$>+$=*%*$&%%$$O>Ck5ky5;;-,;<2;56;22%.",
"41LC7GjkcjxFrArl7Gx-6=%=%=%$%%$%*%&$*%$$:@>Ct6zs;,<22-244,44<,OX",
"41LcnCrxl7CZrZxlxcl76=:=&&%$o%$%*$%$&&$$=$,C7ux7;;;2;2<;5;25;2%:",
"-1LClcZcjCCjjCCxx7ly6->2&&*$o%$%*$$$$*$$%$,N6kj55t6;-,22;4;;42,%",
"41LccCcllLCkCZCxn7k-6-:--&-o%*$%=$$$%,%$$$1c7cj5tk55444;,44,;2&:",
"41LcZZclkLCjCZZll7lj5-*<-&-$%*$$-%$$%*%$$+1cexj4yytkt555;24242,:",
"4;LcZZClkA7jCCGljell4<*<;=-$$&%$&%$$%,$$%$3Mjxj6lr5082;44;;2;2&:",
"44LCZZcllP74jZLjjell4-><;&=$$&%$%&$$%=$$$$3Nkx07u55565<;;;<-4;&&",
"4,LcZSxrrIr4jZLjjelz8-><;=-$%&%$%&$$$&$$$$3Mjx6ju465p6552;2-42,:",
"41LcZGr4rLl7lZLkjell4-*<;=-$*&&&%%%&%&%$$%qZjZ6l75552455;4;24<><",
"41LCCJkkrLClCCGjv7kl5-=4;=&&*%-%%&$&**%$$$1FjF5Zr55665;4444242,=",
";1GCZPlZ7LCkCCLjj7l6u4=6;&&&2%-%*=%%=*$$$$,FkF5Z7555%-;4544-;2*-",
",1LCCJjGCCFl7xC7jxlyk5=6;&=*=&,-;&%%*&$$$$3FjF6C77y4%-4es45<<2>-",
",1GCZJjkGcLFrACj0cz4e<=i;===-&=2;&&%=-&$$$1FkZ6u77y4,44py-4;<<%-",
"-1LCCGCCLxPCrFkk6cl-l0*64-=*=,-22&&&&-*$+o1Fyn7u66u6-540e454;<:-",
"-1LZCGAkSzGlkSrZrAl-k6*5;4<--;;2<&&-**-%+O1Gtckyr57y5544484;44:-",
",1LGCCGCZzjlCllcrGl-k0=648-;;<;;,&=,=&*%$o1Ftxk6l75e55<5544445*-",
"-1LAAlAAkukxlcclZGZyZ5*644<4;<;;;&;2**=$$o1Frvl7uy5-64-54-55;5*=",
",1LLLZALzPDyxSDNIJJzGp,6;4<8222;,&-2&--$$$1Ckylr47y;4;45-46545,-",
",1RRRLLWHREIIIIIEEYJWZb7;4<4;24;;<-2&;-$+%qckynn44ye;;54-455;5,=",
",qLxxCCCylBMkuvuMNukNhh7;4<422;4<<<2=;-$$%8Mkuln5;ey;45--55585>-",
"=qFeeyegpii5ipiiapiiy8b7;4<;;;2;<-;2*;-=%*qNkyucy--j554-5r4445*-",
"->8:>:>>>:@@::>:>::::%h7;4<4;<24<;4;-422*=qcl77cj4<9554-eu5446>-",
"-+O . ......  .....X  ht;4-8-<;;<;;,-;<-*=qCkj6kj64,54-4uu5456>-",
"<:O  XXXX.@O.XOOX .XX ht;8-4<<24<2--;42<-=qCjn7rlk64-4-6j75456>-",
"<@O@X..@:XX@X$$+X@X$$ ht;4<4<<;;<;*;2;-<-,qFyn75yn65<,47j65445==",
"<:+$+OX%%$%$$&%$%%$%$Xhr;424<<;;2;*;;;<2,,qG7x757l754,4j754454>=",
"<%*$$%X+%%%$$&%%$%%%$Oh6-4<4<-4<<2*,;4;-4,qZ7k745kj5447k444444,-",
"<:%%&*$$$:$%$*%$%%$$%Oht54;4<24<2-:225;2==qc4jk467l747l7454444--",
"<:%%%*$$%$$$$,%$&:$%$$ht5--4<<4<<4&p25;<4=qc4jk4557k7jj44446444=",
";:=%$$$$=$$$$&%$&**%%Ovt4<45<<4<<4:h244,<,qN4ty4;55uzj54;;5554--",
"4$-;%$$$&%&$$&%$&5*-&Xnr5<<52<4<24:g4442<-qM;;ty-;54p6;-;554;;==",
";:-;$$%%=%*&$&%$%5*-&onr5--6;;4<<4*86;;;;;3PMNNNMlMNlzzzxNNNlNu=",
"<%;;$=2=&%<*$*%&,2--$ony55;5245<2;;:5;;2223RUYIIYZUYIHHHHYYHHRN=",
"2:,;$;;=*%,=$%%-2,4;$Onr5545-45<<4<:52422;3Hdjuvjtsjjapsajvpyki*",
"2$,;%;;=&%,&$&%*;24-oonrr585-45<<4<:5;;;;;3Nippwii92;3ii9pi8tp3-",
"<:94-;2-&$-=&-**-;8-$Onru0-u885<<4<:5;4;24@OOX@O$XXXOOXXXO@XXOX-",
"-qM42;;;&&=448a-8-;;$Onra4;y845<<4<,a-;2;2O.XX....XXXXXXXX.X   -",
"=3N4-4-4;;&45;uts,4;$onru84y845<,4-,a---44O XXXXX...XXXXX..XXX.,",
",qc4---56;-;42d6s;4p$Ozrd54y844<241>u-,<<4@ XX.......XX X....X.,",
";3M54<<564-452u6d;4u$onyu8-y044,-4;,a-<4;;@ ..  X.@:X.. XX.... g",
"43N54<-56;;555uth46u$.nyu84a00a,;;;1u-<648@ X OO:.:<:..@&:@.X. v",
"41c5--4554;556u6u46u-Xzyd945d5v<52;1y-2u44+O%@:O:::2<OO+22@:<%.v",
"48c4885654555tuty65y-$nru445d9y<54-1y-8u-8@:><<::::<<&,:;,O&<,Xb",
"58c4d05554455urui5tj-&nra846j9d,52;:s82u4;%%,;-+=,%,2,,$,;&,;,Xn",
"5qc4u95r8;555uru64ul-&nru546y7j<544Ow04u;4@>,4;,<,:;22<,<2<<;-.V",
"48c4y04y2;565ytut5yl4-nry656y7d<582Oe79u;4%-2;;<<-,2222--22--2$B",
"-8c4rt4r3;555ytu65yl5=ntey56j7d-544@ee4pi4:<<;;;<2<;22-22-2222%B",
"-8c4yi;s34665u6u66zn6-lr6u55u6d<44;Owp;pp5%,2242,;222-2<;22222%V",
"44FlMMzN9*;54y5t4pmj5=lr7u56j7d,444Ofp2ep5:-<-4;22,;222<;;-2<5*V",
"-4TTIFTEfhBMxHDzNHHPSdnt7u56j6u4554Of0;ey5%;<<;;2;2<<;2-;2,;<4%V",
"-qFvkikv1MUPJUUPUIPUYmnr0u56j7j5558Op04sy5*;<--;-<<<<<2<4;2224:V",
"j8Npi9pf:9jdjuuusjkuu0nt6u55u6j6554Oit5ty5*4<224;<<;;<224222;8*V",
"k+@OOX$O$3iiiiiiiiiii3nr7u557yjt558O0t5tt5*;<<;;-<<;;;2-42-2<4*V",
"p$ ..XX..XOXXXXXXXXXX.nrtu55typy554Oee6yt6*422<4;<<2;22<;;<2<4&V",
"x%3XXXXXXXXXXXXOXOOXO.nr6u55tstt564Oee67t5*;<2242-<;4<-<42<--4&V",
"l8nO$OX$$O$$O$$$O%%$$Ozyiu65tttt555Oe757t5*;22-42-<;;22<4;<<<4:V",
"xqn$,%$&:O%$$$$%%%&$$$nt6u54tttt565oe75rt4&;<2<;-<2;;;2;;<<<,4,V",
"lqlo*&$$%$$$:$$:,%&$&&nt6y446ypr544+fy6usi=;--2;22-;;<<;;,;;24:V",
"Nwc$&=$$&%$%$$%$*%&$*%nkuzrrstkk7ts:nEYIUE9;-222;;;;-<<;;<2<<4*V",
"Ebx%$,=&&$$%$&&&&$&$=%BWERPETUETIIElfZMuCN2;2;-2;2;;<22;42<;<4*V",
"xfc&$&<=$&$$$<,&;=*$,&BZzxMxxxxxxxm9<sp6pa&;;;2;4224<-2;;;;8,4*V"
};
