/* XPM */
static char *_553860553692[] = {
/* columns rows colors chars-per-pixel */
"32 32 123 2 ",
"   c #641E27",
".  c #651F27",
"X  c #661E27",
"o  c #691D23",
"O  c #6A1D25",
"+  c #6B1E25",
"@  c #691F26",
"#  c #6A1F26",
"$  c #6B1F26",
"%  c #6A1F27",
"&  c #6B1F27",
"*  c #641F28",
"=  c #6B1F29",
"-  c #6A2127",
";  c #672028",
":  c #682028",
">  c #692028",
",  c #6A2128",
"<  c #6B2128",
"1  c #6B2129",
"2  c #6C212A",
"3  c #6C222B",
"4  c #6C232B",
"5  c #6C232C",
"6  c #6C242D",
"7  c #6C252E",
"8  c #73313E",
"9  c #74394A",
"0  c #744960",
"q  c #655974",
"w  c #685873",
"e  c #3E7FA4",
"r  c #4E6D8C",
"t  c #536984",
"y  c #506F89",
"u  c #496893",
"i  c #4A6992",
"p  c #4B6E91",
"a  c #477796",
"s  c #4B7390",
"d  c #4A7392",
"f  c #497793",
"g  c #487595",
"h  c #487995",
"j  c #41709F",
"k  c #43799C",
"l  c #437D9C",
"z  c #3F83A2",
"x  c #3F86A2",
"c  c #3C84A6",
"v  c #3C88A6",
"b  c #378FAD",
"n  c #3A8AA9",
"m  c #398AAA",
"M  c #3888AC",
"N  c #2F8BB9",
"B  c #3588B0",
"V  c #348AB2",
"C  c #2E90BA",
"Z  c #2B92BF",
"A  c #2C90BD",
"S  c #2C92BD",
"D  c #2D93BF",
"F  c #2F93BE",
"G  c #3296B4",
"H  c #3292BE",
"J  c #3393BE",
"K  c #3493BD",
"L  c #3195BE",
"P  c #3395BE",
"I  c #3096BF",
"U  c #3296BE",
"Y  c #3594BD",
"T  c #3796BD",
"R  c #3595BE",
"E  c #3496BE",
"W  c #3897BD",
"Q  c #3698BE",
"!  c #399ABD",
"~  c #389FBE",
"^  c #3C9CBC",
"/  c #37A5BE",
"(  c #39A0BE",
")  c #3DA1BD",
"_  c #3FA1BD",
"`  c #41809F",
"'  c #46A3BC",
"]  c #41A6BC",
"[  c #44A9BC",
"{  c #45AFBD",
"}  c #63A6BD",
"|  c #6BBABB",
" . c #48B3C1",
".. c #49B7C3",
"X. c #49B8C2",
"o. c #49BCC3",
"O. c #4AB8C4",
"+. c #4BB9C5",
"@. c #4CBAC5",
"#. c #4DB8C7",
"$. c #4BBDC4",
"%. c #4ABEC4",
"&. c #4DBDC6",
"*. c #4DBCC7",
"=. c #4CBFC6",
"-. c #5AB6C1",
";. c #51BBC5",
":. c #54BBC4",
">. c #5ABDC1",
",. c #8ABEA9",
"<. c #88BCAE",
"1. c #83BBB1",
"2. c #AEBEBB",
"3. c #CBCBBE",
"4. c #EFDBA8",
"5. c #EFDEB3",
"6. c #EEDEB4",
"7. c #F1E1B7",
"8. c #EDE4CC",
"9. c #EDE8D9",
"0. c #ECE8DB",
"q. c #EFEBDE",
"w. c None",
/* pixels */
"w.w.w.w.w.w.w.w.w.w.w.w.w.w.w.w.w.w.w.w.w.w.w.w.w.w.w.w.w.w.w.w.",
"w.w.w.w.w.w.w.w.w.w.w.w.w.w.w.w.w.w.w.w.w.w.w.w.w.w.w.w.w.w.w.w.",
"w.w.w.w.w.w.w.w.w.w.w.w.w.w.w.w.w.w.w.w.w.w.w.w.w.w.w.w.w.w.w.w.",
"w.w.w.w.w.w.w.w.w.w.w.w.1 - - - - - - - 1 6 1 w.w.w.w.w.w.w.w.w.",
"w.w.w.w.w.w.w.w.w.w.w.w.- 1 - 1 1 - - - 1 1 1 w.w.w.w.w.w.w.w.w.",
"w.w.w.w.w.w.w.w.w.$ $ $ - $     ;   ;   ; 1 1 $ - w.w.w.w.w.w.w.",
"w.w.w.w.w.w.w.w.w.6 6 5 $ = * *     ;   ; $ 1 5 5 w.w.w.w.w.w.w.",
"w.w.w.w.w.w.w.w.w.w q 0 $ $ $ 1 -   $ ; - o 8 q w w.w.w.w.w.w.w.",
"w.w.w.w.w.w.w.w.w.a l w 1 $ 1 - 4 2 2 - $ $ 9 ` g w.w.w.w.w.w.w.",
"w.w.w.w.w.w.w.w.w.s y r i j ~ _ 2.3.} / N i p y s w.w.w.w.w.w.w.",
"w.w.w.w.w.w.w.w.w.s t k R ^ *.>.7.q.,.*.{ R S t s w.w.w.w.w.w.w.",
"w.w.w.w.w.w.w.w.w.s y k J ! @.:.5.9.<.$.[ R C y s w.w.w.w.w.w.w.",
"w.w.w.w.w.w.w.w.w.s y k J ! @.:.5.9.<.$.[ K C y s w.w.w.w.w.w.w.",
"w.w.w.w.w.w.w.w.w.s y k J ! @.:.5.9.<.$.[ R C y s w.w.w.w.w.w.w.",
"w.w.w.w.w.w.w.w.w.s y k J ! @.:.5.9.<.$.[ R C y s w.w.w.w.w.w.w.",
"w.w.w.w.w.w.w.w.w.s y k J ! @.:.5.9.<.$.[ R C y s w.w.w.w.w.w.w.",
"w.w.w.w.w.w.w.w.w.s y k J ! @.:.5.9.<.$.[ Y N y s w.w.w.w.w.w.w.",
"w.w.w.w.w.w.w.w.w.s y k J ! @.:.5.9.<.$.[ R C y s w.w.w.w.w.w.w.",
"w.w.w.w.w.w.w.w.w.s y k J ! @.:.6.9.<.$.[ K C y s w.w.w.w.w.w.w.",
"w.w.w.w.w.w.w.w.w.l h c J ! +.:.6.9.<.%.[ R S s h w.w.w.w.w.w.w.",
"w.w.w.w.w.w.w.w.w.s y g F L X.#.4.8.1.%._ K V r s w.w.w.w.w.w.w.",
"w.w.w.w.w.w.w.w.w.w.w.w.y h R ! -.| ' Q M n s w.w.w.w.w.w.w.w.w.",
"w.w.w.w.w.w.w.w.w.w.w.w.t s J J X.*._ K c x r w.w.w.w.w.w.w.w.w.",
"w.w.w.w.w.w.w.w.w.w.w.w.s e J R +.;._ R V G s w.w.w.w.w.w.w.w.w.",
"w.w.w.w.w.w.w.w.w.w.w.w.y s D L  .@.( L z v w.w.w.w.w.w.w.w.w.w.",
"w.w.w.w.w.w.w.w.w.w.w.w.w.w.y z L R M G w.w.w.w.w.w.w.w.w.w.w.w.",
"w.w.w.w.w.w.w.w.w.w.w.w.w.w.t s D I k x w.w.w.w.w.w.w.w.w.w.w.w.",
"w.w.w.w.w.w.w.w.w.w.w.w.w.w.w.w.s b w.w.w.w.w.w.w.w.w.w.w.w.w.w.",
"w.w.w.w.w.w.w.w.w.w.w.w.w.w.w.w.y m w.w.w.w.w.w.w.w.w.w.w.w.w.w.",
"w.w.w.w.w.w.w.w.w.w.w.w.w.w.w.w.w.w.w.w.w.w.w.w.w.w.w.w.w.w.w.w.",
"w.w.w.w.w.w.w.w.w.w.w.w.w.w.w.w.w.w.w.w.w.w.w.w.w.w.w.w.w.w.w.w.",
"w.w.w.w.w.w.w.w.w.w.w.w.w.w.w.w.w.w.w.w.w.w.w.w.w.w.w.w.w.w.w.w."
};
