/* XPM */
static char *_553856768349[] = {
/* columns rows colors chars-per-pixel */
"64 64 83 1 ",
"  c #453236",
". c #433737",
"X c #443636",
"o c #453936",
"O c #473E37",
"+ c #473F37",
"@ c #453D38",
"# c #463F39",
"$ c #484137",
"% c #47423A",
"& c #484139",
"* c #4A4538",
"= c #4A4638",
"- c #48453B",
"; c #49473B",
": c #4B483A",
"> c #484A3B",
", c #4B4B3A",
"< c #4A4A3B",
"1 c #4B4B3B",
"2 c #4C4B39",
"3 c #4C4A3A",
"4 c #4C4B3A",
"5 c #4A4D3A",
"6 c #4C4F38",
"7 c #4E4D3A",
"8 c #4C4F3A",
"9 c #4D4F3A",
"0 c #4F5B37",
"q c #4E5F37",
"w c #4B5238",
"e c #4B503B",
"r c #4C5338",
"t c #4C5239",
"y c #4E5338",
"u c #4D503A",
"i c #4B5538",
"p c #4B563A",
"a c #4B563B",
"s c #4E5638",
"d c #4F553A",
"f c #4D563A",
"g c #4F563B",
"h c #4B5938",
"j c #4B5B38",
"k c #4B593A",
"l c #4F5839",
"z c #4C583A",
"x c #4C5B3A",
"c c #4C5E39",
"v c #4F5E39",
"b c #4D5F3A",
"n c #505F37",
"m c #505838",
"M c #505939",
"N c #50593A",
"B c #505C3A",
"V c #4D6137",
"C c #4F6137",
"Z c #4F6537",
"A c #4F6C37",
"S c #4D6138",
"D c #4E6138",
"F c #4E633A",
"G c #4D6538",
"H c #4F6539",
"J c #4E663A",
"K c #4E6838",
"L c #4E6839",
"P c #4F6A38",
"I c #4F6D38",
"U c #506137",
"Y c #506837",
"T c #506338",
"R c #506239",
"E c #506538",
"W c #50663A",
"Q c #506A39",
"! c #506D39",
"~ c #506E39",
"^ c #526E38",
"/ c #527138",
"( c #537239",
/* pixels */
"zzpzTESTvvvvCHSHHZZAHPKH%o++vvSv6*%<zvBzBjjzatwfP!!!TSFTbgfmCHCE",
"zzpzSSWSvvqvHZEEZHZHHPKG%%o$BBBB<%;>vfNvajjkftwfQ!!YWSTSfNqBCHES",
"zppzSESCvCvvTHTEHZZPPPPH$oo$avvj;%%;fnCjzjjfftfpQ!!!TSHvNNmBSESE",
"ffffTSECvvjvCvTTZHCHHPHG*+#*vvTv<<*5mznNzjzztwwpPY!AESSTNzzNSSTS",
"ffrfCCUCppfpwwwtSESvfqBBjzfmYEHHzzvzznvzt6tt36<6HPPJCVTSfsffaffp",
"sfrsnUUqppppt66tSSSTqmTzBNnzHQPHqvvvBNBzt666***<HPPHSSSBsyfwtttt",
"sfrsCCCCpppp6666SESCBfNBBNCSHPPEvvBvvzvzt6663**<HPHHSvSSisfffwfp",
"ssrsqCCCjpfpt6ttUESq0qBBzmsmCHHSzzzzvBzvtwtw<6<pHPKASSSTsrftwwtt",
"6116ttttvSSTftsrnffztt66oXX+ssss$#+%SZHZHHHHHHSHKYK!A!AAr6w6;*<3",
"161<tt6tSSSSffsffzNfttt6X  Xrrsr+oo.ZHZZHPPHPHHH!!!!QYKZr6w6*%**",
"t1<66tttSTSCsrryffppt6t6X  Xrrsr+..+CZZHHPPHPPHPK!!YY!K!66663**<",
"ut6ttfwfTvSBfsssNpjcytty+XXosssm%++#HZZZJHHHHHHHKAK!KA!Krww6;&<;",
"TTTvHQQEfwwfipffHPHHTSSSimzC!^(!SSJGZSHSCvCvjjjzCCCCZZHZjpzj;#;;",
"WWTHYQQYpww6ppphIHPHvSTSZqvC((((PPPLSVSChvjvjppjCCqCZZZZjjvz;-;;",
"EESEAKQKrrrrpprpAPKHUSSSvqqC^((!PPPHHSHSvvvvjfjqCSCCZHZZzzzz*#-#",
"HqTEZ!KZpipfpjppKH!QSvChvvqv!//!HHJZSVSSVvvcjppzCCqCCYHZfjfz1;11",
"CSCSHPPHJHHHHHCZKKPJVVSSvjvvjjvjSHHSvjhvTESTjjjhfsspTTTT8<6uBSTT",
"UUCCHHHPPJHHHHZHZ!PPvhSjjvvjpjjzCSSCv0SzSEEEj0piftrsTTTN6<15SQTW",
"SEUCHHPHJPPEHZZAKPHKCvSScjpCpjzzSHSSvjzTEEESzjcpffssTTTT56<6SEEE",
"SSBUHPHHPHHEZZCZZPPJSBSjvvvzzffjCSSvvvvNUSSCjfvfrwrpTSSvt11tTTES",
"CvvvHHHSSSTSvqqvTEETwttfHPPH*+$*vvvvvCvj6<33UZSTrwatzBjawmNffNzN",
"vvhvSHQSSSSBvCpqESTTwwtwQPQH$oo+jzjjvCvq3&&6TEEEtw86pvjjfgggfzNz",
"vvCvEEESSSSqvqcvSEEStt6tZPPH$oo#zjjvvNYz6&$3SEHHtt6tjjjpfggNfmzz",
"vvBBSTESvvvvqvvqSTTStttpHPPH*+#*zvzvfvnz3**3USZSttt6pfjffgfNNNzN",
"ZZZHvvvpr<6<CCvqfwwtvjjjvvvvTSSSHIHSut6tjfjjvSSSvvqv<5*<TTCCvzzv",
"ZHZZBTvq<**6pCCc666thvSvvvvjSSTvHPPHat66zzz0cvSjCSSC;&&;TTEHv0qB",
"ZZZZvzvj<**<vqvq6666pvhccvvvSETTHPHHttttjpjhqCCCCSSB<%#<TEEC0f0z",
"HZHZvvSvy*<rvSCCtt6tcvvvvvvvBSBTHHHHt6t<j0zhcqqvcvvk>;;<BCHCv0nB",
"KHHHHHJHpqjvCCTTfvaBSEZSr>886136mggN<777CZZCt999ww<t<&*<zzNzCZZZ",
"HAPHHIPHvfjvZHEEvvjvZQZHw6863***yzfg611tZHHZ669966666**<f0fNZZZH",
"PHPPPJPHvvjvSZHSjjvjZZHSw6<8***3yggg7666BYTT66669966*$**smfzZHHA",
"HHHHJPJHvhzvCHZSvjvvCHZZ66w83611fgNg1717TEWTt9d99888<==*NzzzCZZZ",
"ttwpHPPHssrpCvBSHHESESSS6<<60m0NUEECtwwpHHPHcjvhvvSCppppvCSCScCv",
"tt6wSPHHsrrsvvvjZHEESSTSt3y<zNzBTEESfwpfHPPJvCvvCSCvjppfSSSHBvvv",
"666tHPPHprspvv0vZZEJESCS6<<6yNqfCETC6rriHPPAvSvvvCSvfppfEHSSvvvq",
"ttttSHHHfrrpqvvqCHWTSSBB66rrmBNzSEEHprrsHPHHvhvvvSvcppppSCSCvvSv",
"vvvvz0jjwwwaqvvvw6wt3613vSvSSWTZHHHHCCqCEHEUvvjvvvSBttttNzNzZHHH",
"vvvvpjjpw6<tvTv0w666**&1SHSSSEBEHPPHCCCSTSSTjkkvjvvztt6tffffHPHP",
"vvvvjpzzttttznqzt<61*&&1SSESEETEHPKECCCSEEESbzjvvvSvtywwNfpaHPPP",
"qvvvfcBzttttqSBCt6t61*18SETSTSSEHHHHCBSCSWSSvvjvjSvvfttfNzjjHHHH",
"vjCBqvqvBHSS!HHATTSSTSSBSmzzCHESjjfzzBnBnmNmHZZCftyfEQQEz0jvpzzz",
"0vzzqCvCTSSEPPQPTTWEvSESmzn0CCSSfffz0zzNzNmzZEZHr6ttYQQQh0jjpfzN",
"pv00cvvqSEvTPPQPEvESTSSTqmzzCHSTzNzNzUNzzNNqTEETttttQQQEjphzzNNz",
"vj0fCSqCSSHSHAEHTTSTTSESBzCvSSSSNffzzvBvNmmzTTTTfttgEEQEfjjzfmzN",
"cvvCcCSSEJTStt6ta6taSHHHPPPH<%*;tt67BTSvy688887tCHCCt88tCHCCfsff",
"CCCCCSSSJPPJ616tttttEPJPPQIH;##%66t7TTCB63561<1tCZZH6316CZHZfssr",
"CjBBSCTSEPWWt6616t6tHJJJPIPP;##;3666BSTB6<6<616tZHHZ6336CHZCsrsr",
"SSSSSvTSEWWTt16tf7taHPHHPPPH<*&;6t6tCSSSw<6wu11tCZZC666wCHZCss0s",
"PPHHTvCCSSCvjvvvCqmCqCqCCHCHSEHHJPHHHPPHpjpjvqvvvfjNvvvTTHSEIPPH",
"PPKKSvSvvSCcSvvqBzzmqvccCZCZHPHPPHPHPPPZjqzfqvvvp00NTTSSSvTSPQ!!",
"AKAHSBBSvSvvvvv0NmBNqCvCCZHZHPEHJPPPPPHKfjpjfqBTmm0fSSTEFESEAQQ!",
"HHHHSTSSCCCvvvSjUzzNqvcqCHCCZHHHHHAGKJAHzpjjqvBBzzfNBbvNBSBSZAHA",
"w<36CEHHHPHASSSSt617tutapfsf0pznvSSvvvqvCCHCSESSYYET6363***3pfpf",
"**$<HHJJPQPPSSTT616dttutpfri0qqmvcvvvqvqZSSHSESEEUES3*3**&&&wtti",
"<*%*HPJPPPPHSSSBt66ttu8uifsssqfqvvvvSqBBSSSSHSTUSEEC3*3**$+&rttf",
"<<<ySEJHHPQQESESt16utttttsrs0jfBjvSvBBSSTSHETSSUSETU6*6**<*<tifi",
"cvvBSEESSSqCCZZZvjpjww8a66ttSHHHZHZGCSvSHHHHjpfzpjjhsrrszBvqz0z0",
"CCCSSSSCBBcCZZHZvjvvtwttt66wHPPHZZZHVSSSHPPHffNzjjjhsisfSSvqv0zv",
"CSBSSSSTCcccZZZZvvzBttttt66tHPPHHZHJSSSSHPPHjfzzfj0hsrrsBSTvBzvv",
"SSSTSEHSCvCCZHHZBSBatt6ttt6aSHHHZZZCSvTSHHHSNfNzpjpipssfSTvqN0nz",
"SSBCIIIIZCHTCSSSTSSTCUCqazNzpapfSSSSEHHHBvvvTSSSSSSTjzvhNmNzN0vz",
"SSvCIIIIZHHJSSSSSEWTSUCCNvBqppppqvBBEQPHSvSqvTJTSEESvvvvmNmNNqnB",
"SSCSIIA!PZWETSSTTSTSTUZCz0B0cppzvSvSJIHHBvvBSHTFWSSSvhZBBNNqnzzB",
"SCvSI(AKHZWSFbTFTESTSUCUBqBzpppzSSSSHHPHSvvTSSvWTWSEvvvBzmmNNvBn"
};
