/* XPM */
static char *_553796029248[] = {
/* columns rows colors chars-per-pixel */
"64 64 129 2 ",
"   c #010000",
".  c #0A0404",
"X  c #0D0807",
"o  c #040509",
"O  c #0A0609",
"+  c #0D0A0A",
"@  c #160505",
"#  c #1A0707",
"$  c #1F0708",
"%  c #110D0C",
"&  c #1C0A0A",
"*  c #1C110E",
"=  c #130B11",
"-  c #190E16",
";  c #161015",
":  c #1A1111",
">  c #10141F",
",  c #1D1219",
"<  c #220708",
"1  c #270B0B",
"2  c #2C0D0D",
"3  c #350E0E",
"4  c #2C1815",
"5  c #21171E",
"6  c #22181F",
"7  c #2C1E1C",
"8  c #3D1212",
"9  c #301A17",
"0  c #311B18",
"q  c #3B211D",
"w  c #121223",
"e  c #131B25",
"r  c #1F1F3C",
"t  c #1C1C34",
"y  c #241A21",
"u  c #2A1C26",
"i  c #2D1D28",
"p  c #311D2B",
"a  c #1C2634",
"s  c #1F2B3C",
"d  c #392725",
"f  c #3A2C25",
"g  c #35202E",
"h  c #3E2B28",
"j  c #3B3026",
"k  c #372030",
"l  c #3D2335",
"z  c #431515",
"x  c #481616",
"c  c #5F1C1C",
"v  c #661F1F",
"b  c #40231F",
"n  c #422420",
"m  c #4A2923",
"M  c #422C2B",
"N  c #5E342D",
"B  c #402537",
"V  c #422639",
"C  c #45283C",
"Z  c #513734",
"A  c #533A35",
"S  c #5B3E3A",
"D  c #6C2121",
"F  c #752424",
"G  c #7C2626",
"H  c #7F2828",
"J  c #643730",
"K  c #514334",
"L  c #61433F",
"P  c #61503F",
"I  c #262646",
"U  c #3B3B6D",
"Y  c #3E3E74",
"T  c #4A2B40",
"R  c #403F77",
"E  c #3C446F",
"W  c #3A4E6A",
"Q  c #3C516E",
"!  c #3F4974",
"~  c #3E5473",
"^  c #634440",
"/  c #6D4B47",
"(  c #404077",
")  c #42427A",
"_  c #405678",
"`  c #415A79",
"'  c #832727",
"]  c #882727",
"[  c #832828",
"{  c #8A2A2A",
"}  c #942B2B",
"|  c #9D2E2E",
" . c #A22F2F",
".. c #A73030",
"X. c #AC3232",
"o. c #B13333",
"O. c #835A54",
"+. c #9D6B65",
"@. c #B17972",
"#. c #BF827B",
"$. c #B39273",
"%. c #BB9A79",
"&. c #C1847D",
"*. c #CD8C84",
"=. c #D08D86",
"-. c #DC958D",
";. c #DE988F",
":. c #E09790",
">. c #E39C92",
",. c #CEA685",
"<. c #CFA984",
"1. c #DBAF8D",
"2. c #DDB48E",
"3. c #E2A492",
"4. c #ECA198",
"5. c #EEAE9A",
"6. c #F0A49B",
"7. c #F3A99D",
"8. c #E1B691",
"9. c #E3BA92",
"0. c #EEB29A",
"q. c #EEBF9A",
"w. c #F8A7A0",
"e. c #F7ABA0",
"r. c #FAAAA1",
"t. c #EEC39A",
"y. c #F0C59B",
"u. c #F7CBA0",
"i. c None",
/* pixels */
"i.i.i.i.i.i.i.i.i.i.i.i.i.i.i.i.i.i.i.i.i.i.i.i.i.i.i.i.                                        i.i.i.i.i.i.i.i.i.i.i.i.i.i.i.i.",
"i.i.i.i.i.i.i.i.i.i.i.i.i.i.i.i.i.i.i.i.i.i.i.i.i.i.i.i.O O O O O O O O O O   o o . . o o . o . i.i.i.i.i.i.i.i.i.i.i.i.i.i.i.i.",
"i.i.i.i.i.i.i.i.i.i.i.i.i.i.i.i.i.i.i.i.i.i.            l C B B B C B C C B y 5 6 6 6 y 6 6 6 ,     i.i.i.i.i.i.i.i.i.i.i.i.i.i.",
"i.i.i.i.i.i.i.i.i.i.i.i.i.i.i.i.i.i.i.i.i.i.% = = % = = B C C C C C C C C V i i i u y y y y y 6 O O i.i.i.i.i.i.i.i.i.i.i.i.i.i.",
"i.i.i.i.i.i.i.i.i.i.i.i.i.i.i.i.i.i.        B C C C C C C C C C C C C C C C C C C V y 6 6 y y y y 6     i.i.i.i.i.i.i.i.i.i.i.i.",
"i.i.i.i.i.i.i.i.i.i.i.i.i.i.i.i.i.i.- - - , B C C C C C C C C C C V C C C C C C C V p p y y y y y 6 + O i.i.i.i.i.i.i.i.i.i.i.i.",
"i.i.i.i.i.i.i.i.i.i.i.i.i.i.i.i.    B C T C C C C C B C C C C C C C C C C C C V C C C V y y y y y y y 6     i.i.i.i.i.i.i.i.i.i.",
"i.i.i.i.i.i.i.i.i.i.i.i.i.i.i.  , y B C C C C C C C C C C C C C C C C C C C C C C C C B y y y y y y y 6 ; +   i.i.i.i.i.i.i.i.i.",
"i.i.i.i.i.i.i.i.i.i.i.i.i.i.  . V T C C C C C C C C C C C C C C C C C C C C C T C C C B y 6 y y y y y y y 6     i.i.i.i.i.i.i.i.",
"i.i.i.i.i.i.i.i.i.i.i.i.i.i.i.i., , B C C C C C C C C C C C C C C C V C C B , , B C C C l p y y y y y y y y     i.i.i.i.i.i.i.i.",
"i.i.i.i.i.i.i.i.i.i.i.i.i.i.i.i.    B C C C C C C C C C C C C C C C C C C B     B C C C C V u 5 y y y y y 6     i.i.i.i.i.i.i.i.",
"i.i.i.i.i.i.i.i.i.i.i.i.i.i.i.i.i.i.= = = = = = = = = = = = = = = = = = = 5 +.+., = B C C B y y y y y y y 6     i.i.i.i.i.i.i.i.",
"i.i.i.i.i.i.i.i.i.i.i.i.i.i.i.i.i.i.                                      X >.>.+   l C C B y y y y y y y , o   i.i.i.i.i.i.i.i.",
"i.i.i.i.i.i.i.i.i.i.i.i.i.i.i.i.i.i.i.i.  X @.&.#.#.#.#.#.#.#.#.#.&.#.#.&.&.>.-.% o B C C V y y y y y y y 6     i.i.i.i.i.i.i.i.",
"i.i.i.i.i.i.i.i.i.i.i.i.i.i.i.i.i.i.i.i.  % :.7.7.7.7.7.7.7.7.7.7.7.7.7.7.7.6.-.%   B C C V u y y y y y y 6     i.i.i.i.i.i.i.i.",
"i.i.i.i.i.i.i.i.i.i.i.i.i.i.i.i.i.i.i.i.  % 1.y.q.q.q.q.q.q.t.t.q.q.q.q.q.q.7.-.X   B C C B y 5 6 y y y y y     i.i.i.i.i.i.i.i.",
"i.i.i.i.i.i.i.i.i.i.i.i.i.i.i.i.i.i.i.i.  % 2.t.t.t.t.t.y.t.t.t.t.t.t.t.t.q.5.-.7 : k l C V u u y 6 y y y , o   i.i.i.i.i.i.i.i.",
"i.i.i.i.i.i.i.i.i.i.i.i.i.i.i.i.i.i.i.i.  % 2.y.t.t.t.t.t.t.t.t.t.t.t.t.t.t.q.q.4.=.X   B C B B y y y y y 6     i.i.i.i.i.i.i.i.",
"i.i.i.i.i.i.i.i.i.i.i.i.i.i.i.i.i.i.i.i.  % 2.t.t.t.t.t.t.t.t.t.t.t.t.t.t.t.t.t.5.>.h 7 p k V V i u y 6 , ,     i.i.i.i.i.i.i.i.",
"i.i.i.i.i.i.i.i.i.i.i.i.i.i.i.i.i.i.i.i.  % 2.y.t.t.t.t.t.t.t.t.t.t.t.t.t.t.t.t.t.q.6.-.X   B C C V u 6     i.i.i.i.i.i.i.i.i.i.",
"i.i.i.i.i.i.i.i.i.i.i.i.i.i.i.i.i.i.i.i.  % 2.y.t.t.t.t.t.t.t.t.t.t.t.t.t.t.t.t.t.t.5.3.A M p p i i , ;     i.i.i.i.i.i.i.i.i.i.",
"i.i.i.i.i.i.i.i.i.i.i.i.i.i.i.i.i.i.i.i.  % 2.y.t.t.t.t.t.t.t.t.t.t.t.t.t.t.t.t.t.t.t.t.7.:.O           i.i.i.i.i.i.i.i.i.i.i.i.",
"i.i.i.i.i.i.i.i.i.i.i.i.i.i.i.i.i.i.i.i.  % 2.y.t.y.t.t.t.t.t.t.t.t.t.t.t.t.t.t.t.t.t.q.0.3./ ^ ^ K X   i.i.i.i.i.i.i.i.i.i.i.i.",
"i.i.i.i.i.i.i.i.i.i.i.i.i.i.i.i.i.i.i.i.  % 2.y.t.t.t.t.t.t.t.t.t.t.t.t.t.t.t.t.t.t.t.t.t.t.e.7.r.>.%   i.i.i.i.i.i.i.i.i.i.i.i.",
"i.i.i.i.i.i.i.i.i.i.i.i.i.i.i.i.i.i.i.i.  % 2.y.y.t.t.t.t.t.t.t.t.t.t.t.t.t.t.t.t.t.t.t.t.t.0.0.4.-.%   i.i.i.i.i.i.i.i.i.i.i.i.",
"i.i.i.i.i.i.i.i.i.i.i.i.i.i.i.i.i.i.i.i.  % 9.u.t.t.t.t.t.t.t.t.t.t.t.t.t.t.t.t.t.t.t.t.t.t.t.t.r.>.%   i.i.i.i.i.i.i.i.i.i.i.i.",
"i.i.i.i.i.i.i.i.i.i.i.i.i.i.i.i.i.i.i.i.i.i.K P 9.y.t.t.t.t.t.t.t.t.t.t.t.t.t.t.t.q.0.5.0.5.7.3.L A i.i.i.i.i.i.i.i.i.i.i.i.i.i.",
"i.i.i.i.i.i.i.i.i.i.i.i.i.i.i.i.i.i.i.i.i.i.  + 2.y.y.y.y.y.y.y.t.y.y.y.y.y.y.y.y.y.6.6.6.6.6.;.O   i.i.i.i.i.i.i.i.i.i.i.i.i.i.",
"i.i.i.i.i.i.i.i.i.i.i.i.i.i.i.i.i.i.i.i.i.i.i.i.j j j j j j j j f j j j j j j j j j d d f d f d i.i.i.i.i.i.i.i.i.i.i.i.i.i.i.i.",
"i.i.i.i.i.i.i.i.i.i.i.i.i.i.i.i.i.i.i.i.i.i.i.i.                                                i.i.i.i.i.i.i.i.i.i.i.i.i.i.i.i.",
"i.i.i.i.i.i.i.i.i.i.i.i.i.i.i.i.i.i.i.i.i.i.i.i.i.i.i.i.i.i.  + %.,.*.*.*.#.X   i.i.i.i.i.i.i.i.i.i.i.i.i.i.i.i.i.i.i.i.i.i.i.i.",
"i.i.i.i.i.i.i.i.i.i.i.i.i.i.i.i.i.i.i.i.i.i.i.i.i.i.i.i.i.i.X * <.8.:.;.;.*.* . i.i.i.i.i.i.i.i.i.i.i.i.i.i.i.i.i.i.i.i.i.i.i.i.",
"i.i.i.i.i.i.i.i.i.i.i.i.i.i.i.i.i.i.i.i.i.i.i.i.i.i.      . } } * + % + % % F D o       i.i.i.i.i.i.i.i.i.i.i.i.i.i.i.i.i.i.i.i.",
"i.i.i.i.i.i.i.i.i.i.i.i.i.i.i.i.i.i.i.i.i.i.i.i.i.i.# # # 1  . .< @ @ # @ < G G # @ @ @ i.i.i.i.i.i.i.i.i.i.i.i.i.i.i.i.i.i.i.i.",
"i.i.i.i.i.i.i.i.i.i.i.i.i.i.i.i.i.i.i.i.i.i.i.i.    | ......X.X.............G G G H G F     i.i.i.i.i.i.i.i.i.i.i.i.i.i.i.i.i.i.",
"i.i.i.i.i.i.i.i.i.i.i.i.i.i.i.i.i.i.i.i.i.i.i.i.2 3  .o.X.X.X.X.X.X.X.X.X.X.{ { [ H [ F 2 $ i.i.i.i.i.i.i.i.i.i.i.i.i.i.i.i.i.i.",
"i.i.i.i.i.i.i.i.i.i.i.i.i.i.i.i.i.i.i.i.i.i.  .  .o.X.X.X.X.X.X.X.X.X.X.X.X.X...' G H H ' F .   i.i.i.i.i.i.i.i.i.i.i.i.i.i.i.i.",
"i.i.i.i.i.i.i.i.i.i.i.i.i.i.i.i.i.i.i.i.i.i.  . | X.X.X.X.X.o.X.X.o.X.X.X.X.X...[ ' H [ ' F .   i.i.i.i.i.i.i.i.i.i.i.i.i.i.i.i.",
"i.i.i.i.i.i.i.i.i.i.i.i.i.i.i.i.i.i.i.i.i.i.  @ | X.o.o.X.X.X.o.X.X.X.X.X.X.X...' G [ [ [ G .   i.i.i.i.i.i.i.i.i.i.i.i.i.i.i.i.",
"i.i.i.i.i.i.i.i.i.i.i.i.i.i.i.i.i.i.i.i.i.i.  . |  .c v  .X.X.X.X.X.X.X.X.X.X.X.[ G x z z 8     i.i.i.i.i.i.i.i.i.i.i.i.i.i.i.i.",
"i.i.i.i.i.i.i.i.i.i.i.i.i.i.i.i.i.i.i.i.i.i.  .  .|      .o.X.X.X.X.X.X.X.X.X.X.[ F             i.i.i.i.i.i.i.i.i.i.i.i.i.i.i.i.",
"i.i.i.i.i.i.i.i.i.i.i.i.i.i.i.i.i.i.i.i.i.i.  @  . .. .  .X.X.X.X.X.X.X.X.X.X...[ F . + O.O.X   i.i.i.i.i.i.i.i.i.i.i.i.i.i.i.i.",
"i.i.i.i.i.i.i.i.i.i.i.i.i.i.i.i.i.i.i.i.i.i.  .  . .. . | X.X.X.X.X.o.X.X.X.X.X.[ F   % >.>.%   i.i.i.i.i.i.i.i.i.i.i.i.i.i.i.i.",
"i.i.i.i.i.i.i.i.i.i.i.i.i.i.i.i.i.i.i.i.i.i.    2 3   . | X.X.X.X.X.X.X.X.X.X...[ G   % :.-.%   i.i.i.i.i.i.i.i.i.i.i.i.i.i.i.i.",
"i.i.i.i.i.i.i.i.i.i.i.i.i.i.i.i.i.i.i.i.i.i.          .  .X.X.X.X.X.X.X.X.X.X...[ F . % -.-.%   i.i.i.i.i.i.i.i.i.i.i.i.i.i.i.i.",
"i.i.i.i.i.i.i.i.i.i.i.i.i.i.i.i.i.i.i.i.i.i.  X @.@.X . | X.X.X.X.X.X.X.X.X.X.X.[ F . % 2.1.%   i.i.i.i.i.i.i.i.i.i.i.i.i.i.i.i.",
"i.i.i.i.i.i.i.i.i.i.i.i.i.i.i.i.i.i.i.i.i.i.  % >.>.% . | X.X.X.X.X.X.X.X.X.X...[ F . % 8.2.%   i.i.i.i.i.i.i.i.i.i.i.i.i.i.i.i.",
"i.i.i.i.i.i.i.i.i.i.i.i.i.i.i.i.i.i.i.i.i.i.  % 2.1.%   G [ X.X.X.X.o.X.X.X.o.X.[ F   % 8.2.%   i.i.i.i.i.i.i.i.i.i.i.i.i.i.i.i.",
"i.i.i.i.i.i.i.i.i.i.i.i.i.i.i.i.i.i.i.i.i.i.  % 2.2.% . F [  ...X.X.X.X.X.X.X.X.[ F . % 2.2.%   i.i.i.i.i.i.i.i.i.i.i.i.i.i.i.i.",
"i.i.i.i.i.i.i.i.i.i.i.i.i.i.i.i.i.i.i.i.i.i.  % 9.9.% . F [ [ ] X.o.o.o.o.o.X.X.[ G   % 9.9.%   i.i.i.i.i.i.i.i.i.i.i.i.i.i.i.i.",
"i.i.i.i.i.i.i.i.i.i.i.i.i.i.i.i.i.i.i.i.i.i.  % $.$.+ . c v v v ' ] ' ] ] ] ] ' D c . + $.$.%   i.i.i.i.i.i.i.i.i.i.i.i.i.i.i.i.",
"i.i.i.i.i.i.i.i.i.i.i.i.i.i.i.i.i.i.i.i.i.i.i.i.    i.i.                            i.i.    i.i.i.i.i.i.i.i.i.i.i.i.i.i.i.i.i.i.",
"i.i.i.i.i.i.i.i.i.i.i.i.i.i.i.i.i.i.i.i.i.i.i.i.    i.i.    e e w w w w w w w >     i.i.    i.i.i.i.i.i.i.i.i.i.i.i.i.i.i.i.i.i.",
"i.i.i.i.i.i.i.i.i.i.i.i.i.i.i.i.i.i.i.i.i.i.i.i.i.i.i.i.  o Q ~ R R ) ) ( ( Y U o   i.i.i.i.i.i.i.i.i.i.i.i.i.i.i.i.i.i.i.i.i.i.",
"i.i.i.i.i.i.i.i.i.i.i.i.i.i.i.i.i.i.i.i.i.i.i.i.i.i.i.i.  o Q ~ ) E I I U ( Y U o   i.i.i.i.i.i.i.i.i.i.i.i.i.i.i.i.i.i.i.i.i.i.",
"i.i.i.i.i.i.i.i.i.i.i.i.i.i.i.i.i.i.i.i.i.i.i.i.i.i.i.i.  o W ~ ` Q     U ( Y U o   i.i.i.i.i.i.i.i.i.i.i.i.i.i.i.i.i.i.i.i.i.i.",
"i.i.i.i.i.i.i.i.i.i.i.i.i.i.i.i.i.i.i.i.i.i.i.i.i.i.i.i.  o W Q s a o o t a Y U o   i.i.i.i.i.i.i.i.i.i.i.i.i.i.i.i.i.i.i.i.i.i.",
"i.i.i.i.i.i.i.i.i.i.i.i.i.i.i.i.i.i.i.i.i.i.i.i.i.i.i.i.  o Q ~     i.i.    U Y o   i.i.i.i.i.i.i.i.i.i.i.i.i.i.i.i.i.i.i.i.i.i.",
"i.i.i.i.i.i.i.i.i.i.i.i.i.i.i.i.i.i.i.i.i.i.i.i.            e e o   i.i.    w w             i.i.i.i.i.i.i.i.i.i.i.i.i.i.i.i.i.i.",
"i.i.i.i.i.i.i.i.i.i.i.i.i.i.i.i.i.i.i.i.i.i.i.i.                    i.i.                    i.i.i.i.i.i.i.i.i.i.i.i.i.i.i.i.i.i.",
"i.i.i.i.i.i.i.i.i.i.i.i.i.i.i.i.i.i.i.i.i.i.    m m 0 4 0 0 4 4     i.i.    4 0 0 0 4 0 0 4     i.i.i.i.i.i.i.i.i.i.i.i.i.i.i.i.",
"i.i.i.i.i.i.i.i.i.i.i.i.i.i.i.i.i.i.i.i.i.i.  . N J b b n q b q     i.i.  o 0 b n q b b b q     i.i.i.i.i.i.i.i.i.i.i.i.i.i.i.i.",
"i.i.i.i.i.i.i.i.i.i.i.i.i.i.i.i.i.i.i.i.i.i.    X X O . . . . O     i.i.    X X . . O . X .     i.i.i.i.i.i.i.i.i.i.i.i.i.i.i.i.",
"i.i.i.i.i.i.i.i.i.i.i.i.i.i.i.i.i.i.i.i.i.i.                        i.i.                        i.i.i.i.i.i.i.i.i.i.i.i.i.i.i.i."
};
