/* XPM */
static char *_553846064348[] = {
/* columns rows colors chars-per-pixel */
"64 64 189 2 ",
"   c #4B3E37",
".  c #4D3D34",
"X  c #6F5718",
"o  c #6F5918",
"O  c #6F5919",
"+  c #6D591B",
"@  c #6F5C18",
"#  c #6F5D1B",
"$  c #6B591E",
"%  c #6B591F",
"&  c #6B5B1F",
"*  c #6D591C",
"=  c #6D5B1C",
"-  c #6D5B1D",
";  c #6D5D1E",
":  c #53402E",
">  c #53432E",
",  c #59482A",
"<  c #4E4034",
"1  c #4B4038",
"2  c #504032",
"3  c #504332",
"4  c #544630",
"5  c #544831",
"6  c #665723",
"7  c #685720",
"8  c #6B5B20",
"9  c #6B5B21",
"0  c #6B5D20",
"q  c #6B5D21",
"w  c #6B5D22",
"e  c #6B5F22",
"r  c #6B5F23",
"t  c #695D24",
"y  c #6B6123",
"u  c #6D6322",
"i  c #6B6124",
"p  c #6C6124",
"a  c #6C6324",
"s  c #6C6325",
"d  c #6C6525",
"f  c #6C6526",
"g  c #6D6A28",
"h  c #6F8037",
"j  c #71873B",
"k  c #71883B",
"l  c #70883C",
"z  c #70883D",
"x  c #718B3E",
"c  c #728C3E",
"v  c #728C3F",
"b  c #738C3F",
"n  c #6A8F4D",
"m  c #688E4E",
"M  c #698F4E",
"N  c #6A904D",
"B  c #69904E",
"V  c #739140",
"C  c #779542",
"Z  c #769643",
"A  c #739446",
"S  c #769545",
"D  c #759645",
"F  c #779644",
"G  c #779744",
"H  c #769645",
"J  c #769745",
"K  c #779646",
"L  c #779746",
"P  c #779844",
"I  c #769845",
"U  c #779846",
"Y  c #779946",
"T  c #789845",
"R  c #789946",
"E  c #799A46",
"W  c #799B46",
"Q  c #789A47",
"!  c #789B47",
"~  c #789C47",
"^  c #73974A",
"/  c #749648",
"(  c #759748",
")  c #749749",
"_  c #75994A",
"`  c #769A4B",
"'  c #71984C",
"]  c #72984D",
"[  c #70984F",
"{  c #71994F",
"}  c #799B48",
"|  c #799C48",
" . c #799D48",
".. c #7A9E49",
"X. c #7B9E49",
"o. c #6F9850",
"O. c #6F9951",
"+. c #6F9D52",
"@. c #709950",
"#. c #709A50",
"$. c #719A51",
"%. c #729B50",
"&. c #729B51",
"*. c #709B52",
"=. c #719D51",
"-. c #729C50",
";. c #739C50",
":. c #729E50",
">. c #709C52",
",. c #719D52",
"<. c #729D52",
"1. c #709E52",
"2. c #729E52",
"3. c #729F52",
"4. c #729F53",
"5. c #7BA04A",
"6. c #7DA54E",
"7. c #72A051",
"8. c #73A052",
"9. c #72A152",
"0. c #73A053",
"q. c #74A152",
"w. c #74A252",
"e. c #75A253",
"r. c #76A352",
"t. c #76A452",
"y. c #79A451",
"u. c #7DA751",
"i. c #7CA851",
"p. c #99BE4F",
"a. c #81AC50",
"s. c #81AC51",
"d. c #89B450",
"f. c #89B451",
"g. c #8AB552",
"h. c #8AB553",
"j. c #8BB653",
"k. c #8CB753",
"l. c #8EB753",
"z. c #89B556",
"x. c #89B557",
"c. c #8DB654",
"v. c #93B950",
"b. c #92BB54",
"n. c #93BC54",
"m. c #95BC55",
"M. c #96BD55",
"N. c #95BE54",
"B. c #99BE50",
"V. c #99BE54",
"C. c #98BF55",
"Z. c #9ABF54",
"A. c #99BD57",
"S. c #98BE56",
"D. c #99BF56",
"F. c #9ABF56",
"G. c #9BBF57",
"H. c #9BC050",
"J. c #9CC056",
"K. c #9DC156",
"L. c #9EC057",
"P. c #9CC05A",
"I. c #9FC05C",
"U. c #A4BE92",
"Y. c #A5BE93",
"T. c #D8D498",
"R. c #E6D79D",
"E. c #E6D79E",
"W. c #E4D89C",
"Q. c #E4D89D",
"!. c #E5D89D",
"~. c #EAD99C",
"^. c #EBD99D",
"/. c #CBCDB4",
"(. c #CDCDB8",
"). c #D0CEB7",
"_. c #EFDFB8",
"`. c #EEE0BD",
"'. c #EEE0BE",
"]. c #EEE6D1",
"[. c #EDE6D4",
"{. c #EDE7D7",
"}. c #EDE7D8",
"|. c #ECE7DA",
" X c #ECE7DB",
".X c #EFEADB",
"XX c #EFEADC",
"oX c #F0E9D5",
"OX c None",
/* pixels */
"OXOXOXOXOXOXOXOXOXOXOXOXOXOXOXOXOXOXOXOXOXOXOXOXOXOXOXOXOXOXOXOXOXOXOXOXOXOXOXOXOXOXOXOXOXOXOXOXOXOXOXOXOXOXOXOXOXOXOXOXOXOXOXOX",
"OXOXOXOXOXOXOXOXOXOXOXOXOXOXOXOXOXOXOXOXOXOXOXOXOXOXOXOXOXOXOXOXOXOXOXOXOXOXOXOXOXOXOXOXOXOXOXOXOXOXOXOXOXOXOXOXOXOXOXOXOXOXOXOX",
"OXOXOXOXOXOXOXOXOXOXOXOXOXOXOXOXOXOXOXOXOXOXOXOXOXOXOXOXOXOXOXOXOXOXOXOXOXOXOXOXOXOXOXOXOXOXOXOXOXOXOXOXOXOXOXOXOXOXOXOXOXOXOXOX",
"OXOXOXOXOXOXOXOXOXOXOXOXOXOXOXOXOXOXOXOXOXOXOXOXOXOXOXOXOXOXOXOXOXOXOXOXOXOXOXOXOXOXOXOXOXOXOXOXOXOXOXOXOXOXOXOXOXOXOXOXOXOXOXOX",
"OXOXOXOXOXOXOXOXOXOXOXOXOXOXOXOXOXOXOXOXOXOXOXOXOXOXOXOXOXOXOXOXOXOXOXOXOXOXOXOXOXOXOXOXOXOXOXOXOXOXOXOXOXOXOXOXOXOXOXOXOXOXOXOX",
"OXOXOXOXOXOXOXOXOXOXOXOXOXOXOXOXOXOXOXOXOXOXOXOXOXOXOXOXOXOXOXOXOXOXOXOXOXOXOXOXOXOXOXOXOXOXOXOXOXOXOXOXOXOXOXOXOXOXOXOXOXOXOXOX",
"OXOXOXOXOXOXOXOXOXOXOXOXOXOXOXOXOXOXOXOXOXOXOXOXOXOXOXOXOXOXOXOXOXOXOXOXOXOXOXOXOXOXOXOXOXOXOXOXOXOXOXOXOXOXOXOXOXOXOXOXOXOXOXOX",
"OXOXOXOXOXOXOXOXOXOXOXOXOXOXOXOXOXOXOXOXOXOXi 0 0 0 0 0 t q q q q q q q q q q q q q p OXOXOXOXOXOXOXOXOXOXOXOXOXOXOXOXOXOXOXOXOX",
"OXOXOXOXOXOXOXOXOXOXOXOXOXOXOXOXOXOXOXOXOXOXp p i i y p p p p p p p i i p p y p p p a OXOXOXOXOXOXOXOXOXOXOXOXOXOXOXOXOXOXOXOXOX",
"OXOXOXOXOXOXOXOXOXOXOXOXOXOXOXOXOXOXOXOXOXOXp q 0 0 ; ; ; ; ; ; ; ; ; ; ; ; ; 0 0 0 i OXOXOXOXOXOXOXOXOXOXOXOXOXOXOXOXOXOXOXOXOX",
"OXOXOXOXOXOXOXOXOXOXOXOXOXOXOXOXOXOXOXOXOXOXq q 0 % ; ; % # % ; ; % % ; ; ; % 8 t 0 i OXOXOXOXOXOXOXOXOXOXOXOXOXOXOXOXOXOXOXOXOX",
"OXOXOXOXOXOXOXOXOXOXOXOXOXOXOXOXOXOXa q q q q q ; ; , > 5 5 5 5 5 5 5 5 5 > , 0 ; 0 0 0 q q q q OXOXOXOXOXOXOXOXOXOXOXOXOXOXOXOX",
"OXOXOXOXOXOXOXOXOXOXOXOXOXOXOXOXOXq g p p p 8 q @ % 2   1 1 1 1 < 1 1 1 1   < = # q q p p p p q OXOXOXOXOXOXOXOXOXOXOXOXOXOXOXOX",
"OXOXOXOXOXOXOXOXOXOXOXOXOXOXOXOXOXq a q 8 8 q q # % 2   1 1 1 1 1 1 1 1 1   < = # q q u % # ; @ OXOXOXOXOXOXOXOXOXOXOXOXOXOXOXOX",
"OXOXOXOXOXOXOXOXOXOXOXOXOXOXOXOXOX# u % % ; ; q @ O :   < < < < < < < < <   : O # q q d # ; % % OXOXOXOXOXOXOXOXOXOXOXOXOXOXOXOX",
"OXOXOXOXOXOXOXOXOXOXOXOXOXOXOXOXOXb b c c h % q ; % 7 7 6 6 6 7 6 6 6 6 6 6 = % ; q % g b z c c OXOXOXOXOXOXOXOXOXOXOXOXOXOXOXOX",
"OXOXOXOXOXOXOXOXOXOXOXOXOXOXOXOXOXU | J Q z @ % 0 0 ; ; ; ; ; ; ; ; ; ; ; ; ; 0 8 = X z K K K K OXOXOXOXOXOXOXOXOXOXOXOXOXOXOXOX",
"OXOXOXOXOXOXOXOXOXOXOXOXOXOXOXOXOXJ Q J K j o % = ; = = = = ; % # % ; % # % ; % % % X j K J J S OXOXOXOXOXOXOXOXOXOXOXOXOXOXOXOX",
"OXOXOXOXOXOXOXOXOXOXOXOXOXOXOXOXOXJ ~ J Z j o % ; ; ; ; t ; 0 t 0 t 0 ; 0 0 0 0 0 8 X z Q J S J OXOXOXOXOXOXOXOXOXOXOXOXOXOXOXOX",
"OXOXOXOXOXOXOXOXOXOXOXOXOXOXOXOXOXJ ~ J Z J N N N N y.i.u.6.U.(./.(.Y.6.i.i.y.N m m m S Z J J S OXOXOXOXOXOXOXOXOXOXOXOXOXOXOXOX",
"OXOXOXOXOXOXOXOXOXOXOXOXOXOXOXOXOXJ Q J C ^ e.e.0.t.N.K.J.H.~..XoX.X^.H.K.K.m.t.0.0.0._ C J S J OXOXOXOXOXOXOXOXOXOXOXOXOXOXOXOX",
"OXOXOXOXOXOXOXOXOXOXOXOXOXOXOXOXOXU Q J Z ^ e.3.0.0.N.m.m.B.!.{.].|.R.p.P.S.N.0.e.4.4._ Z S J S OXOXOXOXOXOXOXOXOXOXOXOXOXOXOXOX",
"OXOXOXOXOXOXOXOXOXOXOXOXOXOXOXOXOXJ ~ J J ^ 3.4.0.7.n.P.Z.B.!.|.].{.R.B.Z.S.n.4.3.e.e.^ Z J S J OXOXOXOXOXOXOXOXOXOXOXOXOXOXOXOX",
"OXOXOXOXOXOXOXOXOXOXOXOXOXOXOXOXOXJ Q J Z ^ 0.0.0.0.n.S.Z.B.!.{.].{.!.B.Z.Z.n.e.3.4.4.^ Z S J S OXOXOXOXOXOXOXOXOXOXOXOXOXOXOXOX",
"OXOXOXOXOXOXOXOXOXOXOXOXOXOXOXOXOXJ ~ J Z ^ 4.4.4.e.n.Z.Z.B.!.|.].{.!.B.Z.P.n.0.4.4.4.^ C K S J OXOXOXOXOXOXOXOXOXOXOXOXOXOXOXOX",
"OXOXOXOXOXOXOXOXOXOXOXOXOXOXOXOXOXJ Q J Z ^ e.4.4.e.m.Z.m.B.Q.|.].{.!.B.Z.S.N.0.4.e.e.^ C C J S OXOXOXOXOXOXOXOXOXOXOXOXOXOXOXOX",
"OXOXOXOXOXOXOXOXOXOXOXOXOXOXOXOXOXJ ~ J Z ^ 0.0.4.e.n.Z.Z.B.Q.}.].{.!.B.m.J.N.0.4.4.4.^ Z J J J OXOXOXOXOXOXOXOXOXOXOXOXOXOXOXOX",
"OXOXOXOXOXOXOXOXOXOXOXOXOXOXOXOXOXJ Q J J ^ 0.0.4.e.n.Z.Z.n.Q.}.].{.!.B.J.m.N.0.4.4.e.K Z J J J OXOXOXOXOXOXOXOXOXOXOXOXOXOXOXOX",
"OXOXOXOXOXOXOXOXOXOXOXOXOXOXOXOXOXJ Q J Z ^ 0.0.3.e.b.J.n.H.Q.{.].oX!.n.J.J.b.0.4.4.4.^ C J S J OXOXOXOXOXOXOXOXOXOXOXOXOXOXOXOX",
"OXOXOXOXOXOXOXOXOXOXOXOXOXOXOXOXOXJ Q J Z ^ 4.3.3.e.b.J.J.n.Q.}.].oX!.H.J.m.N.0.4.e.e.^ Z S J J OXOXOXOXOXOXOXOXOXOXOXOXOXOXOXOX",
"OXOXOXOXOXOXOXOXOXOXOXOXOXOXOXOXOXJ ~ J Z ^ e.e.3.0.n.J.m.B.!.}.].}.E.J.H.J.b.0.4.4.4.^ Z J J J OXOXOXOXOXOXOXOXOXOXOXOXOXOXOXOX",
"OXOXOXOXOXOXOXOXOXOXOXOXOXOXOXOXOXJ ~ J Z ^ 3.4.3.0.n.J.m.H.!..X].{.T.H.n.J.b.t.4.4.4.^ Z S J K OXOXOXOXOXOXOXOXOXOXOXOXOXOXOXOX",
"OXOXOXOXOXOXOXOXOXOXOXOXOXOXOXOXOXJ Q J C ^ 0.0.9.9.b.H.m.B.Q.{.].{.!.B.Z.J.n.0.4.4.r.^ C K J S OXOXOXOXOXOXOXOXOXOXOXOXOXOXOXOX",
"OXOXOXOXOXOXOXOXOXOXOXOXOXOXOXOXOXJ ~ J C ^ 0.0.+.9.b.J.J.p.Q.{.].{.!.B.m.P.N.0.4.4.4.K Z K S J OXOXOXOXOXOXOXOXOXOXOXOXOXOXOXOX",
"OXOXOXOXOXOXOXOXOXOXOXOXOXOXOXOXOXK ~ J Z _ 3.4.9.e.n.J.J.p.Q.|.].{.Q.B.J.J.N.0.4.4.4.^ Z J J S OXOXOXOXOXOXOXOXOXOXOXOXOXOXOXOX",
"OXOXOXOXOXOXOXOXOXOXOXOXOXOXOXOXOXK Q J Z ^ e.3.+.e.n.m.J.p.Q.}.].{.Q.B.m.m.N.0.4.r.4.^ Z J J J OXOXOXOXOXOXOXOXOXOXOXOXOXOXOXOX",
"OXOXOXOXOXOXOXOXOXOXOXOXOXOXOXOXOXJ Q J Z ^ 3.3.+.0.n.J.J.p.Q.}.].{.W.p.J.N.b.e.4.4.4.^ Z S J S OXOXOXOXOXOXOXOXOXOXOXOXOXOXOXOX",
"OXOXOXOXOXOXOXOXOXOXOXOXOXOXOXOXOXQ Q J Z ^ 3.e.0.0.b.J.J.B.Q.}.].oX!.H.J.H.b.9.4.e.e.^ Z J S J OXOXOXOXOXOXOXOXOXOXOXOXOXOXOXOX",
"OXOXOXOXOXOXOXOXOXOXOXOXOXOXOXOXOXQ ~ J Z ^ +.e.7.7.b.J.m.B.R.|.].{.Q.n.J.m.n.e.4.4.4.J Z J J S OXOXOXOXOXOXOXOXOXOXOXOXOXOXOXOX",
"OXOXOXOXOXOXOXOXOXOXOXOXOXOXOXOXOXK Q J J ] e.9.7.7.b.J.Z.p.!.|.].{.Q.N.J.J.b.e.4.4.4.^ Z S S J OXOXOXOXOXOXOXOXOXOXOXOXOXOXOXOX",
"OXOXOXOXOXOXOXOXOXOXOXOXOXOXOXOXOXJ ~ J Z ^ e.4.3.0.N.Z.Z.B.E.|.].{.Q.p.S.S.n.e.e.4.e.^ C J J J OXOXOXOXOXOXOXOXOXOXOXOXOXOXOXOX",
"OXOXOXOXOXOXOXOXOXOXOXOXOXOXOXOXOXK 5.Q Q _ 4.e.3.0.n.Z.S.B.E. X{.}.Q.p.Z.Z.n.0.4.4.3._ K Q Q J OXOXOXOXOXOXOXOXOXOXOXOXOXOXOXOX",
"OXOXOXOXOXOXOXOXOXOXOXOXOXOXOXOXOXOXQ J C ^ %.%.[ %.f.c.c.n.T._._._.T.v.v.b.l.3.O.%.3.^ Z J J K OXOXOXOXOXOXOXOXOXOXOXOXOXOXOXOX",
"OXOXOXOXOXOXOXOXOXOXOXOXOXOXOXOXOXOXOXOXOXOXK J Z J O.3.3.3.z.I.G.G.z.3.e.4.3.J Z J Q OXOXOXOXOXOXOXOXOXOXOXOXOXOXOXOXOXOXOXOXOX",
"OXOXOXOXOXOXOXOXOXOXOXOXOXOXOXOXOXOXOXOXOXOXQ C C Z O.4.3.+.h.G.S.S.d.+.3.3.O.J Z Z K OXOXOXOXOXOXOXOXOXOXOXOXOXOXOXOXOXOXOXOXOX",
"OXOXOXOXOXOXOXOXOXOXOXOXOXOXOXOXOXOXOXOXOXOXQ J Z S 3.3.3.3.h.S.S.G.h.3.0.3.O.J Z J Q OXOXOXOXOXOXOXOXOXOXOXOXOXOXOXOXOXOXOXOXOX",
"OXOXOXOXOXOXOXOXOXOXOXOXOXOXOXOXOXOXOXOXOXOXQ Z Z J 3.4.4.3.c.S.P.G.h.+.0.0.3.S Z J K OXOXOXOXOXOXOXOXOXOXOXOXOXOXOXOXOXOXOXOXOX",
"OXOXOXOXOXOXOXOXOXOXOXOXOXOXOXOXOXOXOXOXOXOXK J S J 3.4.e.+.c.S.S.P.h.3.0.0.3.J Z J Q OXOXOXOXOXOXOXOXOXOXOXOXOXOXOXOXOXOXOXOXOX",
"OXOXOXOXOXOXOXOXOXOXOXOXOXOXOXOXOXOXOXOXOXOXQ J J K 3.4.4.3.c.Z.Z.G.h.+.4.4.3.J Z K Q OXOXOXOXOXOXOXOXOXOXOXOXOXOXOXOXOXOXOXOXOX",
"OXOXOXOXOXOXOXOXOXOXOXOXOXOXOXOXOXOXOXOXOXOX| } Q Q 3.e.4.+.h.G.S.K.h.3.e.3.3.Q ~ Q X.OXOXOXOXOXOXOXOXOXOXOXOXOXOXOXOXOXOXOXOXOX",
"OXOXOXOXOXOXOXOXOXOXOXOXOXOXOXOXOXOXOXOXOXOXK J Z J ] %.%.o.i.c.c.c.s.%.%.%.[ Z C J K OXOXOXOXOXOXOXOXOXOXOXOXOXOXOXOXOXOXOXOXOX",
"OXOXOXOXOXOXOXOXOXOXOXOXOXOXOXOXOXOXOXOXOXOXOXOXOXOXZ J Z Z %.3.3.3.N C J J Z OXOXOXOXOXOXOXOXOXOXOXOXOXOXOXOXOXOXOXOXOXOXOXOXOX",
"OXOXOXOXOXOXOXOXOXOXOXOXOXOXOXOXOXOXOXOXOXOXOXOXOXOXJ U J Z O.e.0.0.%.J J Q J OXOXOXOXOXOXOXOXOXOXOXOXOXOXOXOXOXOXOXOXOXOXOXOXOX",
"OXOXOXOXOXOXOXOXOXOXOXOXOXOXOXOXOXOXOXOXOXOXOXOXOXOXJ | Q Q %.e.0.0.[ Q Q | J OXOXOXOXOXOXOXOXOXOXOXOXOXOXOXOXOXOXOXOXOXOXOXOXOX",
"OXOXOXOXOXOXOXOXOXOXOXOXOXOXOXOXOXOXOXOXOXOXOXOXOXOXJ J J Z [ ` %.` [ C J K J OXOXOXOXOXOXOXOXOXOXOXOXOXOXOXOXOXOXOXOXOXOXOXOXOX",
"OXOXOXOXOXOXOXOXOXOXOXOXOXOXOXOXOXOXOXOXOXOXOXOXOXOXOXOXOXOXC ~ J Q Z OXOXOXOXOXOXOXOXOXOXOXOXOXOXOXOXOXOXOXOXOXOXOXOXOXOXOXOXOX",
"OXOXOXOXOXOXOXOXOXOXOXOXOXOXOXOXOXOXOXOXOXOXOXOXOXOXOXOXOXOXU ~ J _ J OXOXOXOXOXOXOXOXOXOXOXOXOXOXOXOXOXOXOXOXOXOXOXOXOXOXOXOXOX",
"OXOXOXOXOXOXOXOXOXOXOXOXOXOXOXOXOXOXOXOXOXOXOXOXOXOXOXOXOXOXJ ~ J Q J OXOXOXOXOXOXOXOXOXOXOXOXOXOXOXOXOXOXOXOXOXOXOXOXOXOXOXOXOX",
"OXOXOXOXOXOXOXOXOXOXOXOXOXOXOXOXOXOXOXOXOXOXOXOXOXOXOXOXOXOXJ U J Q J OXOXOXOXOXOXOXOXOXOXOXOXOXOXOXOXOXOXOXOXOXOXOXOXOXOXOXOXOX",
"OXOXOXOXOXOXOXOXOXOXOXOXOXOXOXOXOXOXOXOXOXOXOXOXOXOXOXOXOXOXOXOXOXOXOXOXOXOXOXOXOXOXOXOXOXOXOXOXOXOXOXOXOXOXOXOXOXOXOXOXOXOXOXOX",
"OXOXOXOXOXOXOXOXOXOXOXOXOXOXOXOXOXOXOXOXOXOXOXOXOXOXOXOXOXOXOXOXOXOXOXOXOXOXOXOXOXOXOXOXOXOXOXOXOXOXOXOXOXOXOXOXOXOXOXOXOXOXOXOX",
"OXOXOXOXOXOXOXOXOXOXOXOXOXOXOXOXOXOXOXOXOXOXOXOXOXOXOXOXOXOXOXOXOXOXOXOXOXOXOXOXOXOXOXOXOXOXOXOXOXOXOXOXOXOXOXOXOXOXOXOXOXOXOXOX",
"OXOXOXOXOXOXOXOXOXOXOXOXOXOXOXOXOXOXOXOXOXOXOXOXOXOXOXOXOXOXOXOXOXOXOXOXOXOXOXOXOXOXOXOXOXOXOXOXOXOXOXOXOXOXOXOXOXOXOXOXOXOXOXOX",
"OXOXOXOXOXOXOXOXOXOXOXOXOXOXOXOXOXOXOXOXOXOXOXOXOXOXOXOXOXOXOXOXOXOXOXOXOXOXOXOXOXOXOXOXOXOXOXOXOXOXOXOXOXOXOXOXOXOXOXOXOXOXOXOX"
};
