/* XPM */
static char *_553861850346[] = {
/* columns rows colors chars-per-pixel */
"32 32 139 2 ",
"   c #8B257B",
".  c #952F77",
"X  c #962F76",
"o  c #973076",
"O  c #9F3871",
"+  c #9F3872",
"@  c #B32F6E",
"#  c #BE3C6B",
"$  c #BF3D6B",
"%  c #BB3C6D",
"&  c #A53377",
"*  c #A13677",
"=  c #A03972",
"-  c #A03873",
";  c #A13973",
":  c #A23973",
">  c #A13A73",
",  c #A23B72",
"<  c #A23A73",
"1  c #A33A73",
"2  c #A33B73",
"3  c #A43B72",
"4  c #A43B73",
"5  c #A33C71",
"6  c #A43D71",
"7  c #A63C73",
"8  c #A23A74",
"9  c #A33A74",
"0  c #A43B74",
"q  c #A43B75",
"w  c #A63B74",
"e  c #A63B76",
"r  c #A53C75",
"t  c #A63D74",
"y  c #A73C77",
"u  c #AA3C72",
"i  c #A93D74",
"p  c #A83C75",
"a  c #A83D75",
"s  c #AB3F74",
"d  c #AA3E75",
"f  c #A83C77",
"g  c #AC3F75",
"h  c #AC3F76",
"j  c #A1357A",
"k  c #A0357C",
"l  c #A73B78",
"z  c #AA3D79",
"x  c #B23F73",
"c  c #B43F73",
"v  c #B03F75",
"b  c #CA2359",
"n  c #C6285F",
"m  c #DF2D50",
"M  c #D83257",
"N  c #DE3154",
"B  c #DE3255",
"V  c #DC3457",
"C  c #D2365D",
"Z  c #D83359",
"A  c #D93458",
"S  c #DD3758",
"D  c #E32B4D",
"F  c #E32C4E",
"G  c #E32F4F",
"H  c #E62D4C",
"J  c #E13353",
"K  c #E53151",
"L  c #E23555",
"P  c #E23656",
"I  c #E53754",
"U  c #C92B60",
"Y  c #C33B67",
"T  c #C63A66",
"R  c #C63B67",
"E  c #C83C65",
"W  c #AF4075",
"Q  c #AD4177",
"!  c #AE4076",
"~  c #AE4177",
"^  c #AF4177",
"/  c #AE4278",
"(  c #AF4278",
")  c #B54073",
"_  c #B74172",
"`  c #B14075",
"'  c #B34175",
"]  c #B14176",
"[  c #B24176",
"{  c #B04277",
"}  c #B14377",
"|  c #B24376",
" . c #E4445E",
".. c #C2416D",
"X. c #DA4362",
"o. c #CC527B",
"O. c #E26376",
"+. c #E56677",
"@. c #E86876",
"#. c #480082",
"$. c #490082",
"%. c #4A0083",
"&. c #4B0083",
"*. c #4E0084",
"=. c #4F0084",
"-. c #500085",
";. c #580087",
":. c #5B0088",
">. c #5F008A",
",. c #61008A",
"<. c #62008B",
"1. c #63008B",
"2. c #65008A",
"3. c #64008B",
"4. c #65008B",
"5. c #66008B",
"6. c #62008C",
"7. c #64008C",
"8. c #65008C",
"9. c #66008C",
"0. c #66018C",
"q. c #66008D",
"w. c #67008E",
"e. c #68008F",
"r. c #781383",
"t. c #7E1880",
"y. c #680091",
"u. c #690092",
"i. c #D2A1B2",
"p. c #EABEB5",
"a. c #ECC8BC",
"s. c #ECC9BD",
"d. c #EFCDBD",
"f. c #D3C0C7",
"g. c #EDE1CD",
"h. c #EEEED6",
"j. c #EEF0D7",
"k. c #F1F4D8",
"l. c None",
/* pixels */
"l.l.l.l.l.l.l.l.l.l.l.l.l.l.l.l.l.l.l.l.l.l.l.l.l.l.l.l.l.l.l.l.",
"l.l.l.l.l.l.l.l.l.l.l.l.l.l.l.l.l.l.l.l.l.l.l.l.l.l.l.l.l.l.l.l.",
"l.l.l.l.l.l.l.l.l.l.l.l.l.l.l.l.l.l.l.l.l.l.l.l.l.l.l.l.l.l.l.l.",
"l.l.l.l.l.l.l.l.l.l.l.l.l.l.l.l.l.l.l.l.l.l.l.l.l.l.l.l.l.l.l.l.",
"l.l.l.l.l.l.l.l.l.l.l.0.0.0.0.0.0.0.0.0.y.0.l.l.l.l.l.l.l.l.l.l.",
"l.l.l.l.l.l.l.l.l.l.l.0.1.1.6.2.0.6.0.6.u.6.l.l.l.l.l.l.l.l.l.l.",
"l.l.l.l.l.l.l.l.0.6.0.6.1.=.*.=.=.=.=.:.0.6.0.0.l.l.l.l.l.l.l.l.",
"l.l.l.l.l.l.l.l.0.y.0.0.1.%.%.%.%.%.#.;.0.0.y.0.l.l.l.l.l.l.l.l.",
"l.l.l.l.l.l.l.l.. .   2.2.>.>.>.>.1.>.1.6.r.o . l.l.l.l.l.l.l.l.",
"l.l.l.l.l.l.l.l., 5 . 2.0.2.0.0.2.2.2.2.6.t.5 5 l.l.l.l.l.l.l.l.",
"l.l.l.l.l.l.l.l., , , j & n n i.f.o.b @ k j + ; l.l.l.l.l.l.l.l.",
"l.l.l.l.l.l.l.l.+ - , ] _ J I d.k.@.H E ( ! + ; l.l.l.l.l.l.l.l.",
"l.l.l.l.l.l.l.l.; + 3 ] ) B P a.j.+.F R / d , ; l.l.l.l.l.l.l.l.",
"l.l.l.l.l.l.l.l.; , r ] ) B P a.h.+.F R / d + , l.l.l.l.l.l.l.l.",
"l.l.l.l.l.l.l.l.; + r ( ) B P s.h.+.F R / d ; ; l.l.l.l.l.l.l.l.",
"l.l.l.l.l.l.l.l.; + 5 ( ) B P s.h.+.F R / Q + ; l.l.l.l.l.l.l.l.",
"l.l.l.l.l.l.l.l., + r ] _ B P a.h.+.F R ( d , ; l.l.l.l.l.l.l.l.",
"l.l.l.l.l.l.l.l.; , , / _ B P a.h.+.F R / d + ; l.l.l.l.l.l.l.l.",
"l.l.l.l.l.l.l.l.; + 4 ] ) B P a.h.+.F R / d + 8 l.l.l.l.l.l.l.l.",
"l.l.l.l.l.l.l.l.; , 4 / ) B P a.h.+.F R / d , ; l.l.l.l.l.l.l.l.",
"l.l.l.l.l.l.l.l.; 8 r ( c N P s.j.+.F T ~ d ; ; l.l.l.l.l.l.l.l.",
"l.l.l.l.l.l.l.l.; ; , ] x A V p.g.O.m Y / u , ; l.l.l.l.l.l.l.l.",
"l.l.l.l.l.l.l.l.l.l.l., q ] c X. ...) u r ; l.l.l.l.l.l.l.l.l.l.",
"l.l.l.l.l.l.l.l.l.l.l.+ ; ] ] M G # / r r ; l.l.l.l.l.l.l.l.l.l.",
"l.l.l.l.l.l.l.l.l.l.l.; q / ] A K # / d z 8 l.l.l.l.l.l.l.l.l.l.",
"l.l.l.l.l.l.l.l.l.l.l., ; h v C V % ~ r y l.l.l.l.l.l.l.l.l.l.l.",
"l.l.l.l.l.l.l.l.l.l.l.l.l.+ q v ) r z l.l.l.l.l.l.l.l.l.l.l.l.l.",
"l.l.l.l.l.l.l.l.l.l.l.l.l., ; h ( r r l.l.l.l.l.l.l.l.l.l.l.l.l.",
"l.l.l.l.l.l.l.l.l.l.l.l.l.l.l.; d l.l.l.l.l.l.l.l.l.l.l.l.l.l.l.",
"l.l.l.l.l.l.l.l.l.l.l.l.l.l.l., l l.l.l.l.l.l.l.l.l.l.l.l.l.l.l.",
"l.l.l.l.l.l.l.l.l.l.l.l.l.l.l.l.l.l.l.l.l.l.l.l.l.l.l.l.l.l.l.l.",
"l.l.l.l.l.l.l.l.l.l.l.l.l.l.l.l.l.l.l.l.l.l.l.l.l.l.l.l.l.l.l.l."
};
