/* XPM */
static char *_553860245295[] = {
/* columns rows colors chars-per-pixel */
"32 32 126 2 ",
"   c #691D33",
".  c #6A1D35",
"X  c #6B1E36",
"o  c #6A1E37",
"O  c #6B1E37",
"+  c #6C1E37",
"@  c #641E38",
"#  c #651F38",
"$  c #641F39",
"%  c #651F39",
"&  c #661E38",
"*  c #641F3A",
"=  c #6B1E38",
"-  c #681F3A",
";  c #691F3A",
":  c #6A1F3A",
">  c #6C1E38",
",  c #6C1E39",
"<  c #6C1F39",
"1  c #6D1F39",
"2  c #6C1E3A",
"3  c #6C1F3A",
"4  c #6D1F3B",
"5  c #6E1F3C",
"6  c #6F1F3E",
"7  c #6F203D",
"8  c #6F203E",
"9  c #6F213F",
"0  c #702141",
"q  c #7A2A57",
"w  c #7E2F66",
"e  c #833A7E",
"r  c #653F9D",
"t  c #643E9E",
"y  c #5E3FA1",
"u  c #4D4B9B",
"i  c #56479B",
"p  c #53479D",
"a  c #51469F",
"s  c #5A4799",
"d  c #5C4798",
"f  c #5D459A",
"g  c #58459D",
"h  c #53499A",
"j  c #514A9A",
"k  c #554999",
"l  c #574998",
"z  c #54499A",
"x  c #584899",
"c  c #7D408B",
"v  c #7C418C",
"b  c #614795",
"n  c #624597",
"m  c #604796",
"M  c #604697",
"N  c #644695",
"B  c #674496",
"V  c #684693",
"C  c #6C4592",
"Z  c #65429A",
"A  c #614598",
"S  c #4A46A3",
"D  c #4C46A2",
"F  c #4B45A4",
"G  c #4A46A4",
"H  c #4D44A4",
"J  c #4C47A5",
"K  c #4E48A5",
"L  c #4F4AA5",
"P  c #5046A0",
"I  c #504AA5",
"U  c #514BA5",
"Y  c #5149A7",
"T  c #524BA6",
"R  c #524AA7",
"E  c #534AA7",
"W  c #544BA7",
"Q  c #534CA6",
"!  c #544CA7",
"~  c #564DA7",
"^  c #554EA6",
"/  c #574EA7",
"(  c #5454A1",
")  c #5652A4",
"_  c #5753A4",
"`  c #5850A6",
"'  c #5A52A6",
"]  c #5B55A5",
"[  c #5D56A6",
"{  c #5F5FA3",
"}  c #5E59A4",
"|  c #605CA4",
" . c #625AA8",
".. c #5F66AA",
"X. c #5F6BAC",
"o. c #5F6BAD",
"O. c #5F6FAD",
"+. c #5F6CAF",
"@. c #5F72AF",
"#. c #5F6EB1",
"$. c #5F6FB5",
"%. c #5F72B0",
"&. c #5F70B2",
"*. c #5F75B3",
"=. c #5F73B4",
"-. c #5F73B5",
";. c #756AB6",
":. c #6773B4",
">. c #6174B5",
",. c #6376B5",
"<. c #677BB4",
"1. c #7580B1",
"2. c #9492AC",
"3. c #9D98AC",
"4. c #A19EAA",
"5. c #BCAFBD",
"6. c #CDC5BC",
"7. c #EFDBA8",
"8. c #EFDEB3",
"9. c #EEDEB4",
"0. c #F1E1B7",
"q. c #EDE4CC",
"w. c #EDE8D9",
"e. c #ECE8DB",
"r. c #EFEBDE",
"t. c None",
/* pixels */
"t.t.t.t.t.t.t.t.t.t.t.t.t.t.t.t.t.t.t.t.t.t.t.t.t.t.t.t.t.t.t.t.",
"t.t.t.t.t.t.t.t.t.t.t.t.t.t.t.t.t.t.t.t.t.t.t.t.t.t.t.t.t.t.t.t.",
"t.t.t.t.t.t.t.t.t.t.t.t.t.t.t.t.t.t.t.t.t.t.t.t.t.t.t.t.t.t.t.t.",
"t.t.t.t.t.t.t.t.t.t.t.t.2 7 2 7 7 X 7 2 7 0 7 t.t.t.t.t.t.t.t.t.",
"t.t.t.t.t.t.t.t.t.t.t.t.2 2 2 2 = 7 7 7 7 7   t.t.t.t.t.t.t.t.t.",
"t.t.t.t.t.t.t.t.t.2 2 + 2 2 & & 7 @ @ @ 7 @ 7 7 2 t.t.t.t.t.t.t.",
"t.t.t.t.t.t.t.t.t.9 7 7 + 2 @ @ @ 7 @ @ @   7 7 7 t.t.t.t.t.t.t.",
"t.t.t.t.t.t.t.t.t.v v e 2 X > > @   @ 7 @   q c c t.t.t.t.t.t.t.",
"t.t.t.t.t.t.t.t.t.M d c 5 + + + 7 2 7 7 2 X w s M t.t.t.t.t.t.t.",
"t.t.t.t.t.t.t.t.t.N V N r W `  .5.6.;.( D t Z V N t.t.t.t.t.t.t.",
"t.t.t.t.t.t.t.t.t.N C d ! ` -.<.0.r.4.>.| ! S C N t.t.t.t.t.t.t.",
"t.t.t.t.t.t.t.t.t.N V f E ` &.,.8.w.3.@.| ! D V N t.t.t.t.t.t.t.",
"t.t.t.t.t.t.t.t.t.N V f W ` &.,.8.w.3.@.| W D V N t.t.t.t.t.t.t.",
"t.t.t.t.t.t.t.t.t.N V f E ` &.,.8.w.3.@.| W D V N t.t.t.t.t.t.t.",
"t.t.t.t.t.t.t.t.t.N V f E ` &.,.8.w.3.&.| W D V N t.t.t.t.t.t.t.",
"t.t.t.t.t.t.t.t.t.N V f E / &.,.8.w.3.@.| ! D V N t.t.t.t.t.t.t.",
"t.t.t.t.t.t.t.t.t.N V f E ` &.,.8.w.3.@.| W D V N t.t.t.t.t.t.t.",
"t.t.t.t.t.t.t.t.t.N V f E ` &.,.8.w.3.&.| W D V N t.t.t.t.t.t.t.",
"t.t.t.t.t.t.t.t.t.N V d E ) #.,.9.w.3.@.| W D V N t.t.t.t.t.t.t.",
"t.t.t.t.t.t.t.t.t.d d i E / #.,.9.w.3.@.| W H N M t.t.t.t.t.t.t.",
"t.t.t.t.t.t.t.t.t.N V A K ! X.>.7.q.2.@.} Y P V N t.t.t.t.t.t.t.",
"t.t.t.t.t.t.t.t.t.t.t.t.V M I / :.1. ./ D h M t.t.t.t.t.t.t.t.t.",
"t.t.t.t.t.t.t.t.t.t.t.t.C N Y E X.-.] E g l V t.t.t.t.t.t.t.t.t.",
"t.t.t.t.t.t.t.t.t.t.t.t.M k E / X.,.} E a u N t.t.t.t.t.t.t.t.t.",
"t.t.t.t.t.t.t.t.t.t.t.t.V N H L ..>.` I g k t.t.t.t.t.t.t.t.t.t.",
"t.t.t.t.t.t.t.t.t.t.t.t.t.t.V x I ! p u t.t.t.t.t.t.t.t.t.t.t.t.",
"t.t.t.t.t.t.t.t.t.t.t.t.t.t.C N S I d x t.t.t.t.t.t.t.t.t.t.t.t.",
"t.t.t.t.t.t.t.t.t.t.t.t.t.t.t.t.N h t.t.t.t.t.t.t.t.t.t.t.t.t.t.",
"t.t.t.t.t.t.t.t.t.t.t.t.t.t.t.t.V h t.t.t.t.t.t.t.t.t.t.t.t.t.t.",
"t.t.t.t.t.t.t.t.t.t.t.t.t.t.t.t.t.t.t.t.t.t.t.t.t.t.t.t.t.t.t.t.",
"t.t.t.t.t.t.t.t.t.t.t.t.t.t.t.t.t.t.t.t.t.t.t.t.t.t.t.t.t.t.t.t.",
"t.t.t.t.t.t.t.t.t.t.t.t.t.t.t.t.t.t.t.t.t.t.t.t.t.t.t.t.t.t.t.t."
};
