/* XPM */
static char *_553856087100[] = {
/* columns rows colors chars-per-pixel */
"32 32 130 2 ",
"   c #553135",
".  c #563135",
"X  c #563237",
"o  c #593131",
"O  c #5A3131",
"+  c #583132",
"@  c #593132",
"#  c #5B3132",
"$  c #5A3133",
"%  c #5C3130",
"&  c #5C3131",
"*  c #5D3131",
"=  c #5F3230",
"-  c #583134",
";  c #593134",
":  c #583135",
">  c #593136",
",  c #573238",
"<  c #55333B",
"1  c #54333E",
"2  c #60332F",
"3  c #61332F",
"4  c #62332F",
"5  c #4F3544",
"6  c #4F3545",
"7  c #4D3549",
"8  c #4E3548",
"9  c #4E3549",
"0  c #503443",
"q  c #823C22",
"w  c #90401D",
"e  c #AC4911",
"r  c #C55006",
"t  c #C95104",
"y  c #C95204",
"u  c #DB5501",
"i  c #DA5402",
"p  c #D75A00",
"a  c #DA5A00",
"s  c #DC5800",
"d  c #D95C00",
"f  c #DB5D00",
"g  c #DC5D00",
"h  c #DD5D00",
"j  c #DD5E00",
"k  c #DC5F00",
"l  c #DD5F00",
"z  c #DF5E00",
"x  c #E05700",
"c  c #E25F00",
"v  c #DF6000",
"b  c #E06100",
"n  c #E16300",
"m  c #E26200",
"M  c #E56200",
"N  c #E46300",
"B  c #E66200",
"V  c #E16400",
"C  c #E16500",
"Z  c #E26500",
"A  c #E36500",
"S  c #E36600",
"D  c #E46700",
"F  c #E86100",
"G  c #E86300",
"H  c #E96300",
"J  c #E96400",
"K  c #EA6400",
"L  c #EC6500",
"P  c #ED6500",
"I  c #EF6700",
"U  c #E66900",
"Y  c #E66A00",
"T  c #EF6800",
"R  c #F06600",
"E  c #F16600",
"W  c #F16700",
"Q  c #F26700",
"!  c #F06800",
"~  c #F16800",
"^  c #F26900",
"/  c #F36900",
"(  c #F46900",
")  c #F46A00",
"_  c #F56A00",
"`  c #F46B00",
"'  c #F66C00",
"]  c #F86E00",
"[  c #F67000",
"{  c #F77000",
"}  c #F57300",
"|  c #FA7200",
" . c #FC7300",
".. c #FD7600",
"X. c #FF7503",
"o. c #FF7901",
"O. c #FF7D03",
"+. c #FF7D21",
"@. c #FF840A",
"#. c #FF890C",
"$. c #FF890D",
"%. c #FF8A0F",
"&. c #FF8D0D",
"*. c #FF900F",
"=. c #FF8C11",
"-. c #FF8E12",
";. c #FF8D15",
":. c #FF8F1C",
">. c #FF9010",
",. c #FF9313",
"<. c #FF9114",
"1. c #FF9115",
"2. c #FF9217",
"3. c #FF9319",
"4. c #FF971C",
"5. c #FF9A27",
"6. c #FFA53F",
"7. c #FFA945",
"8. c #FFAE49",
"9. c #E8B184",
"0. c #DBC8AE",
"q. c #EFDBA8",
"w. c #EFDEB3",
"e. c #EEDEB4",
"r. c #F1E1B7",
"t. c #EDE4CC",
"y. c #EDE8D9",
"u. c #ECE8DB",
"i. c #EFEBDE",
"p. c None",
/* pixels */
"p.p.p.p.p.p.p.p.p.p.p.p.p.p.p.p.p.p.p.p.p.p.p.p.p.p.p.p.p.p.p.p.",
"p.p.p.p.p.p.p.p.p.p.p.p.p.p.p.p.p.p.p.p.p.p.p.p.p.p.p.p.p.p.p.p.",
"p.p.p.p.p.p.p.p.p.p.p.p.p.p.p.p.p.p.p.p.p.p.p.p.p.p.p.p.p.p.p.p.",
"p.p.p.p.p.p.p.p.p.p.p.p.$ $ $ $ $ o $ $ $ 3 $ p.p.p.p.p.p.p.p.p.",
"p.p.p.p.p.p.p.p.p.p.p.p.$ $ $ $ $ $ ; $ $ 2 $ p.p.p.p.p.p.p.p.p.",
"p.p.p.p.p.p.p.p.p.$ $ $ $ ; 0 6 0 0 6 6 < $ $ $ $ p.p.p.p.p.p.p.",
"p.p.p.p.p.p.p.p.p.3 2 = o ; 8 8 8 8 8 8 < + $ 3 3 p.p.p.p.p.p.p.",
"p.p.p.p.p.p.p.p.p.r y e $ $ , X X X , , ; X q y r p.p.p.p.p.p.p.",
"p.p.p.p.p.p.p.p.p.j v r & $ & & & & & & = X w v j p.p.p.p.p.p.p.",
"p.p.p.p.p.p.p.p.p.f f a u x [  .9.0.+.} B i a f j p.p.p.p.p.p.p.",
"p.p.p.p.p.p.p.p.p.f p j ~ ] 1.4.r.i.8.,.o.~ J p f p.p.p.p.p.p.p.",
"p.p.p.p.p.p.p.p.p.j a j W ' -.3.w.y.7.>.o.~ B d f p.p.p.p.p.p.p.",
"p.p.p.p.p.p.p.p.p.f p j ~ ' -.3.w.y.7.>.o.W H a f p.p.p.p.p.p.p.",
"p.p.p.p.p.p.p.p.p.f f c W ' -.3.w.y.7.>.o.~ H f f p.p.p.p.p.p.p.",
"p.p.p.p.p.p.p.p.p.f f j W ' -.3.w.y.7.>.o.~ B a f p.p.p.p.p.p.p.",
"p.p.p.p.p.p.p.p.p.f a j W ' -.3.w.y.7.>.o.~ B f f p.p.p.p.p.p.p.",
"p.p.p.p.p.p.p.p.p.f a c W ' -.3.w.y.7.>.o.W H a f p.p.p.p.p.p.p.",
"p.p.p.p.p.p.p.p.p.f d j W ' -.3.w.y.7.>.o.W H f f p.p.p.p.p.p.p.",
"p.p.p.p.p.p.p.p.p.f f j W ' -.3.e.y.7.>.o.W B f f p.p.p.p.p.p.p.",
"p.p.p.p.p.p.p.p.p.v j n W ' -.3.e.y.7.*.o.W J f j p.p.p.p.p.p.p.",
"p.p.p.p.p.p.p.p.p.f f j I ~ $.;.q.t.7.#. .~ B a f p.p.p.p.p.p.p.",
"p.p.p.p.p.p.p.p.p.p.p.p.a j ~ _ 3.5.X._ B S j p.p.p.p.p.p.p.p.p.",
"p.p.p.p.p.p.p.p.p.p.p.p.p f W ~ $.1.| W c S p p.p.p.p.p.p.p.p.p.",
"p.p.p.p.p.p.p.p.p.p.p.p.f n W ~ =.;. .W B U f p.p.p.p.p.p.p.p.p.",
"p.p.p.p.p.p.p.p.p.p.p.p.f f J W @.-.[ I c S p.p.p.p.p.p.p.p.p.p.",
"p.p.p.p.p.p.p.p.p.p.p.p.p.p.f n ~ ~ B U p.p.p.p.p.p.p.p.p.p.p.p.",
"p.p.p.p.p.p.p.p.p.p.p.p.p.p.p f J T j S p.p.p.p.p.p.p.p.p.p.p.p.",
"p.p.p.p.p.p.p.p.p.p.p.p.p.p.p.p.f U p.p.p.p.p.p.p.p.p.p.p.p.p.p.",
"p.p.p.p.p.p.p.p.p.p.p.p.p.p.p.p.a S p.p.p.p.p.p.p.p.p.p.p.p.p.p.",
"p.p.p.p.p.p.p.p.p.p.p.p.p.p.p.p.p.p.p.p.p.p.p.p.p.p.p.p.p.p.p.p.",
"p.p.p.p.p.p.p.p.p.p.p.p.p.p.p.p.p.p.p.p.p.p.p.p.p.p.p.p.p.p.p.p.",
"p.p.p.p.p.p.p.p.p.p.p.p.p.p.p.p.p.p.p.p.p.p.p.p.p.p.p.p.p.p.p.p."
};
