/* XPM */
static char *_553883100521[] = {
/* columns rows colors chars-per-pixel */
"200 80 2 1 ",
"  c #3CB3DB",
". c None",
/* pixels */
"                                                                                                                                                                                                        ",
"                                                                                                                                                                                                        ",
"                                                                                                                                                                                                        ",
"                                                                                                                                                                                                        ",
"                                                                                                                                                                                                        ",
"                                                                                                                                                                                                        ",
"                                                                                                                                                                                                        ",
"                                                                                                                                                                                                        ",
"                                                                                                                                                                                                        ",
"                                                                                                                                                                                                        ",
"                                                                                                                                                                                                        ",
"                                                                                                                                                                                                        ",
"                                                                                                                                                                                                        ",
"                                                                                                                                                                                                        ",
"                                                                                                                                                                                                        ",
"                                                                                                                                                                                                        ",
"                                                                                                                                                                                                        ",
"                                                                                                                                                                                                        ",
"                                                                                                                                                                                                        ",
"                                                                                                                                                                                                        ",
"                                                                                                                                                                                                        ",
"                     ...............................................................................................................................................................                    ",
"                     ...............................................................................................................................................................                    ",
"                     ...............................................................................................................................................................                    ",
"                     ...............................................................................................................................................................                    ",
"                     ...............................................................................................................................................................                    ",
"                     ...............................................................................................................................................................                    ",
"                     ...............................................................................................................................................................                    ",
"                     ...............................................................................................................................................................                    ",
"                     ...............................................................................................................................................................                    ",
"                     ...............................................................................................................................................................                    ",
"                     ...............................................................................................................................................................                    ",
"                     ...............................................................................................................................................................                    ",
"                     ...............................................................................................................................................................                    ",
"                     ...............................................................................................................................................................                    ",
"                     ...............................................................................................................................................................                    ",
"                     ...............................................................................................................................................................                    ",
"                     ...............................................................................................................................................................                    ",
"                     ...............................................................................................................................................................                    ",
"                     ...............................................................................................................................................................                    ",
"                     ...............................................................................................................................................................                    ",
"                     ...............................................................................................................................................................                    ",
"                     ...............................................................................................................................................................                    ",
"                     ...............................................................................................................................................................                    ",
"                     ...............................................................................................................................................................                    ",
"                     ...............................................................................................................................................................                    ",
"                     ...............................................................................................................................................................                    ",
"                     ...............................................................................................................................................................                    ",
"                     ...............................................................................................................................................................                    ",
"                     ...............................................................................................................................................................                    ",
"                     ...............................................................................................................................................................                    ",
"                     ...............................................................................................................................................................                    ",
"                     ...............................................................................................................................................................                    ",
"                     ...............................................................................................................................................................                    ",
"                     ...............................................................................................................................................................                    ",
"                     ...............................................................................................................................................................                    ",
"                     ...............................................................................................................................................................                    ",
"                     ...............................................................................................................................................................                    ",
"                     ...............................................................................................................................................................                    ",
"                     ...............................................................................................................................................................                    ",
"                                                                                                                                                                                                        ",
"                                                                                                                                                                                                        ",
"                                                                                                                                                                                                        ",
"                                                                                                                                                                                                        ",
"                                                                                                                                                                                                        ",
"                                                                                                                                                                                                        ",
"                                                                                                                                                                                                        ",
"                                                                                                                                                                                                        ",
"                                                                                                                                                                                                        ",
"                                                                                                                                                                                                        ",
"                                                                                                                                                                                                        ",
"                                                                                                                                                                                                        ",
"                                                                                                                                                                                                        ",
"                                                                                                                                                                                                        ",
"                                                                                                                                                                                                        ",
"                                                                                                                                                                                                        ",
"                                                                                                                                                                                                        ",
"                                                                                                                                                                                                        ",
"                                                                                                                                                                                                        ",
"                                                                                                                                                                                                        "
};
