/* XPM */
static char *dummy[]={
"200 80 29 1",
". c None",
"b c #000000",
"g c #010101",
"n c #010202",
"r c #020203",
"k c #030505",
"f c #040606",
"x c #040707",
"y c #050708",
"j c #070b0c",
"l c #080b0d",
"w c #080c0e",
"t c #090d0f",
"e c #0c1113",
"v c #0f1719",
"q c #141e22",
"h c #151f23",
"c c #162124",
"o c #1a272b",
"p c #1b282d",
"A c #1d2b2f",
"a c #1e2c31",
"m c #202f34",
"z c #213036",
"d c #23343a",
"i c #242934",
"u c #25373d",
"s c #2c4249",
"# c #b5aceb",
"........................................................................................................................................................................................................",
"........................................................................................................................................................................................................",
"........................................................................................................................................................................................................",
"........................................................................................................................................................................................................",
"........................................................................................................................................................................................................",
"........................................................................................................................................................................................................",
"........................................................................................................................................................................................................",
"........................................................................................................................................................................................................",
"........................................................................................................................................................................................................",
"........................................................................................................................................................................................................",
"........................................................................................................................................................................................................",
"........................................................................................................................................................................................................",
"........................................................................................................................................................................................................",
"........................................................................................................................................................................................................",
"..............############################################################################################################################################################################..............",
"..............############################################################################################################################################################################..............",
"..............############################################################################################################################################################################..............",
"..............############################################################################################################################################################################..............",
"..............############################################################################################################################################################################..............",
"..............############################################################################################################################################################################..............",
"..............############################################################################################################################################################################..............",
"..............############################################################################################################################################################################..............",
"..............############################################################################################################################################################################..............",
"..............############################################################################################################################################################################..............",
"..............############################################################################################################################################################################..............",
"..............############################################################################################################################################################################..............",
"..............############################################################################################################################################################################..............",
"..............############################################################################################################################################################################..............",
"..............############################################################################################################################################################################..............",
"..............############################################################################################################################################################################..............",
"..............############################################################################################################################################################################..............",
"..............########################################################################a###################################################################################################..............",
"..............#############################################################bbbbbbbbbbbb###################################################################################################..............",
"..............#############################################################bbbbbbbbbbbb###################################################################################################..............",
"..............#############################################################bbb########c##dbbb####bbbe###fbbg###bbbbbbbbbb#################################################################..............",
"..............#############################################################bbb############hbbi###bbj#####bb####bbbbbbbbbb#################################################################..............",
"..............#############################################################bbb#####k#######lbbm#bbn######bb########bb#####################################################################..............",
"..............#############################################################bbbbbbbbb########gbbbbb#######bb########bb#####################################################################..............",
"..............#############################################################bbbbbbbbb#########bbbb########bb########bb#####################################################################..............",
"..............#############################################################bbb#####b#########bbbb########bb########bb#####################################################################..............",
"..............#############################################################bbb###############bbbbj#######bb########bb#####################################################################..............",
"..............#############################################################bbb##############bbbbbbc######bb########bb#####################################################################..............",
"..............#############################################################bbboppppppqb####rbb##nbbs#####bb########bb#####################################################################..............",
"..............#############################################################bbbbbbbbbbbb###tbn####bbb#####bb########bb#####################################################################..............",
"..............############################################################ubbbbbbbbbbbb##vbbw####xbbg###rbby######zbbA####################################################################..............",
"..............############################################################################################################################################################################..............",
"..............############################################################################################################################################################################..............",
"..............############################################################################################################################################################################..............",
"..............############################################################################################################################################################################..............",
"..............############################################################################################################################################################################..............",
"..............############################################################################################################################################################################..............",
"..............############################################################################################################################################################################..............",
"..............############################################################################################################################################################################..............",
"..............############################################################################################################################################################################..............",
"..............############################################################################################################################################################################..............",
"..............############################################################################################################################################################################..............",
"..............############################################################################################################################################################################..............",
"..............############################################################################################################################################################################..............",
"..............############################################################################################################################################################################..............",
"..............############################################################################################################################################################################..............",
"..............############################################################################################################################################################################..............",
"..............############################################################################################################################################################################..............",
"..............############################################################################################################################################################################..............",
"..............############################################################################################################################################################################..............",
"..............############################################################################################################################################################################..............",
"..............############################################################################################################################################################################..............",
"........................................................................................................................................................................................................",
"........................................................................................................................................................................................................",
"........................................................................................................................................................................................................",
"........................................................................................................................................................................................................",
"........................................................................................................................................................................................................",
"........................................................................................................................................................................................................",
"........................................................................................................................................................................................................",
"........................................................................................................................................................................................................",
"........................................................................................................................................................................................................",
"........................................................................................................................................................................................................",
"........................................................................................................................................................................................................",
"........................................................................................................................................................................................................",
"........................................................................................................................................................................................................",
"........................................................................................................................................................................................................"};
