/* XPM */
static char *_553795117062[] = {
/* columns rows colors chars-per-pixel */
"64 64 129 2 ",
"   c #010000",
".  c #0A0404",
"X  c #0D0807",
"o  c #040509",
"O  c #0A0609",
"+  c #0D0A0A",
"@  c #160505",
"#  c #1A0707",
"$  c #1F0708",
"%  c #110D0C",
"&  c #1C0A0A",
"*  c #1C110E",
"=  c #130B11",
"-  c #190E16",
";  c #161015",
":  c #1A1111",
">  c #10141F",
",  c #1D1219",
"<  c #220708",
"1  c #270B0B",
"2  c #2C0D0D",
"3  c #350E0E",
"4  c #2C1815",
"5  c #21171E",
"6  c #22181F",
"7  c #2C1E1C",
"8  c #3D1212",
"9  c #301A17",
"0  c #311B18",
"q  c #3B211D",
"w  c #121223",
"e  c #131B25",
"r  c #1F1F3C",
"t  c #1C1C34",
"y  c #241A21",
"u  c #2A1C26",
"i  c #2D1D28",
"p  c #311D2B",
"a  c #1C2634",
"s  c #1F2B3C",
"d  c #392725",
"f  c #3A2C25",
"g  c #35202E",
"h  c #3E2B28",
"j  c #3B3026",
"k  c #372030",
"l  c #3D2335",
"z  c #431515",
"x  c #481616",
"c  c #5F1C1C",
"v  c #661F1F",
"b  c #40231F",
"n  c #422420",
"m  c #4A2923",
"M  c #422C2B",
"N  c #5E342D",
"B  c #402537",
"V  c #422639",
"C  c #45283C",
"Z  c #513734",
"A  c #533A35",
"S  c #5B3E3A",
"D  c #6C2121",
"F  c #752424",
"G  c #7C2626",
"H  c #7F2828",
"J  c #643730",
"K  c #514334",
"L  c #61433F",
"P  c #61503F",
"I  c #262646",
"U  c #3B3B6D",
"Y  c #3E3E74",
"T  c #4A2B40",
"R  c #403F77",
"E  c #3C446F",
"W  c #3A4E6A",
"Q  c #3C516E",
"!  c #3F4974",
"~  c #3E5473",
"^  c #634440",
"/  c #6D4B47",
"(  c #404077",
")  c #42427A",
"_  c #405678",
"`  c #415A79",
"'  c #832727",
"]  c #882727",
"[  c #832828",
"{  c #8A2A2A",
"}  c #942B2B",
"|  c #9D2E2E",
" . c #A22F2F",
".. c #A73030",
"X. c #AC3232",
"o. c #B13333",
"O. c #835A54",
"+. c #9D6B65",
"@. c #B17972",
"#. c #BF827B",
"$. c #B39273",
"%. c #BB9A79",
"&. c #C1847D",
"*. c #CD8C84",
"=. c #D08D86",
"-. c #DC958D",
";. c #DE988F",
":. c #E09790",
">. c #E39C92",
",. c #CEA685",
"<. c #CFA984",
"1. c #DBAF8D",
"2. c #DDB48E",
"3. c #E2A492",
"4. c #ECA198",
"5. c #EEAE9A",
"6. c #F0A49B",
"7. c #F3A99D",
"8. c #E1B691",
"9. c #E3BA92",
"0. c #EEB29A",
"q. c #EEBF9A",
"w. c #F8A7A0",
"e. c #F7ABA0",
"r. c #FAAAA1",
"t. c #EEC39A",
"y. c #F0C59B",
"u. c #F7CBA0",
"i. c None",
/* pixels */
"i.i.i.i.i.i.i.i.i.i.i.i.i.i.i.i.                                        i.i.i.i.i.i.i.i.i.i.i.i.i.i.i.i.i.i.i.i.i.i.i.i.i.i.i.i.",
"i.i.i.i.i.i.i.i.i.i.i.i.i.i.i.i.  O O     O o   O   O O O X O O O O O O i.i.i.i.i.i.i.i.i.i.i.i.i.i.i.i.i.i.i.i.i.i.i.i.i.i.i.i.",
"i.i.i.i.i.i.i.i.i.i.i.i.i.i.    , y y 6 y 6 6 y 6 6 l C C B C l C B C l             i.i.i.i.i.i.i.i.i.i.i.i.i.i.i.i.i.i.i.i.i.i.",
"i.i.i.i.i.i.i.i.i.i.i.i.i.i.O O 5 y y y y y u i u i C C C C C C C C C l = + = % = % i.i.i.i.i.i.i.i.i.i.i.i.i.i.i.i.i.i.i.i.i.i.",
"i.i.i.i.i.i.i.i.i.i.i.i.    y y y y y y y y B C C C C C C C C C C B C C T C C C C l         i.i.i.i.i.i.i.i.i.i.i.i.i.i.i.i.i.i.",
"i.i.i.i.i.i.i.i.i.i.i.i.+ + 5 y y y y y i p C C C C C C C C C C C C C C C C C C C B , - - - i.i.i.i.i.i.i.i.i.i.i.i.i.i.i.i.i.i.",
"i.i.i.i.i.i.i.i.i.i.    5 y y y y y y u B C C C C C C C C C C C C C C C C C C C C C C T C B     i.i.i.i.i.i.i.i.i.i.i.i.i.i.i.i.",
"i.i.i.i.i.i.i.i.i.  + = y y y y y y y y B C C C C C C C C C C C C C C C C C C C C C C C C B y ,   i.i.i.i.i.i.i.i.i.i.i.i.i.i.i.",
"i.i.i.i.i.i.i.i.    y y y y y y y y 5 6 B C C C C C C C C C C C C C C C C C C C C C C C C C T V O   i.i.i.i.i.i.i.i.i.i.i.i.i.i.",
"i.i.i.i.i.i.i.i.    , y y y y y y y g l B C C B 5 5 B C C C C C C C C C C C C C C C C C C B 5 - i.i.i.i.i.i.i.i.i.i.i.i.i.i.i.i.",
"i.i.i.i.i.i.i.i.    y y y y y y 5 y V C C C C B     l C C C C C C C C C C C C C C C C C C B     i.i.i.i.i.i.i.i.i.i.i.i.i.i.i.i.",
"i.i.i.i.i.i.i.i.    y y y y y y y u V C C B - , +.+., = = = = = = = = = = = = = = = = = = = i.i.i.i.i.i.i.i.i.i.i.i.i.i.i.i.i.i.",
"i.i.i.i.i.i.i.i.    y y y y y y 5 y B C C l   + >.>.%                                       i.i.i.i.i.i.i.i.i.i.i.i.i.i.i.i.i.i.",
"i.i.i.i.i.i.i.i.  o , y y y y y y u V C C B   % -.4.&.#.#.#.#.#.#.#.#.#.#.#.#.#.#.@.+   i.i.i.i.i.i.i.i.i.i.i.i.i.i.i.i.i.i.i.i.",
"i.i.i.i.i.i.i.i.    y y y y y y y y B C C B   % -.6.7.6.7.6.7.7.6.e.6.7.7.7.6.w.e.:.%   i.i.i.i.i.i.i.i.i.i.i.i.i.i.i.i.i.i.i.i.",
"i.i.i.i.i.i.i.i.  o , y y y y y y y V C C l   O -.6.q.y.q.q.q.q.t.q.q.q.q.q.t.q.t.1.%   i.i.i.i.i.i.i.i.i.i.i.i.i.i.i.i.i.i.i.i.",
"i.i.i.i.i.i.i.i.    y y y y y y y u C C l l * 7 ;.5.q.t.t.t.t.t.t.t.t.t.t.t.t.t.y.2.%   i.i.i.i.i.i.i.i.i.i.i.i.i.i.i.i.i.i.i.i.",
"i.i.i.i.i.i.i.i.    6 y y y y y l C C l   O *.>.q.t.t.t.t.t.t.t.t.t.t.t.t.t.t.t.y.2.%   i.i.i.i.i.i.i.i.i.i.i.i.i.i.i.i.i.i.i.i.",
"i.i.i.i.i.i.i.i.    , , y y y i C C k g 7 h 3.5.t.t.t.t.t.t.t.t.t.t.t.t.t.t.t.t.y.2.% o i.i.i.i.i.i.i.i.i.i.i.i.i.i.i.i.i.i.i.i.",
"i.i.i.i.i.i.i.i.i.i.    , u C C C B   X -.4.q.t.t.t.t.t.t.t.t.t.t.t.t.t.t.t.t.t.y.2.%   i.i.i.i.i.i.i.i.i.i.i.i.i.i.i.i.i.i.i.i.",
"i.i.i.i.i.i.i.i.i.i.    - , i p i p M A 3.7.t.t.y.t.t.t.t.t.t.t.t.t.t.t.t.t.t.t.y.2.%   i.i.i.i.i.i.i.i.i.i.i.i.i.i.i.i.i.i.i.i.",
"i.i.i.i.i.i.i.i.i.i.i.i.          . :.7.t.t.t.t.t.t.t.t.t.t.t.t.t.t.t.t.t.t.t.t.y.2.%   i.i.i.i.i.i.i.i.i.i.i.i.i.i.i.i.i.i.i.i.",
"i.i.i.i.i.i.i.i.i.i.i.i.  . S ^ ^ / 3.0.t.t.t.t.t.t.t.t.t.t.t.t.t.t.y.t.t.t.t.t.y.2.%   i.i.i.i.i.i.i.i.i.i.i.i.i.i.i.i.i.i.i.i.",
"i.i.i.i.i.i.i.i.i.i.i.i.  + >.r.w.e.t.t.t.t.t.t.t.t.t.t.t.t.t.t.t.t.t.t.t.t.t.y.y.2.%   i.i.i.i.i.i.i.i.i.i.i.i.i.i.i.i.i.i.i.i.",
"i.i.i.i.i.i.i.i.i.i.i.i.  % -.6.0.0.t.t.t.t.t.t.t.t.t.t.t.t.t.t.t.t.t.t.t.t.t.t.y.2.%   i.i.i.i.i.i.i.i.i.i.i.i.i.i.i.i.i.i.i.i.",
"i.i.i.i.i.i.i.i.i.i.i.i.  % >.e.t.t.t.t.t.t.t.t.t.t.t.t.t.t.t.t.t.t.t.t.t.t.t.t.y.8.%   i.i.i.i.i.i.i.i.i.i.i.i.i.i.i.i.i.i.i.i.",
"i.i.i.i.i.i.i.i.i.i.i.i.i.i.S K 3.5.0.5.5.5.t.t.t.t.t.t.t.t.t.t.t.t.t.y.t.y.y.9.P K i.i.i.i.i.i.i.i.i.i.i.i.i.i.i.i.i.i.i.i.i.i.",
"i.i.i.i.i.i.i.i.i.i.i.i.i.i.  X :.6.6.4.6.6.y.t.y.y.y.y.y.y.y.t.y.y.y.y.y.y.y.2.X   i.i.i.i.i.i.i.i.i.i.i.i.i.i.i.i.i.i.i.i.i.i.",
"i.i.i.i.i.i.i.i.i.i.i.i.i.i.i.i.d h d d h d j j j j j j f j j f j j j j j j j j i.i.i.i.i.i.i.i.i.i.i.i.i.i.i.i.i.i.i.i.i.i.i.i.",
"i.i.i.i.i.i.i.i.i.i.i.i.i.i.i.i.                                        o       i.i.i.i.i.i.i.i.i.i.i.i.i.i.i.i.i.i.i.i.i.i.i.i.",
"i.i.i.i.i.i.i.i.i.i.i.i.i.i.i.i.i.i.i.i.i.i.i.i.  O #.*.*.*.<.%.+   i.i.i.i.i.i.i.i.i.i.i.i.i.i.i.i.i.i.i.i.i.i.i.i.i.i.i.i.i.i.",
"i.i.i.i.i.i.i.i.i.i.i.i.i.i.i.i.i.i.i.i.i.i.i.i.. & *.>.;.:.8.<.* X i.i.i.i.i.i.i.i.i.i.i.i.i.i.i.i.i.i.i.i.i.i.i.i.i.i.i.i.i.i.",
"i.i.i.i.i.i.i.i.i.i.i.i.i.i.i.i.i.i.i.i.        D D * + + + % : } }         i.i.i.i.i.i.i.i.i.i.i.i.i.i.i.i.i.i.i.i.i.i.i.i.i.i.",
"i.i.i.i.i.i.i.i.i.i.i.i.i.i.i.i.i.i.i.i.@ @ @ # G G $ @ # @ @ <  ...1 # # # i.i.i.i.i.i.i.i.i.i.i.i.i.i.i.i.i.i.i.i.i.i.i.i.i.i.",
"i.i.i.i.i.i.i.i.i.i.i.i.i.i.i.i.i.i.    F G G H G [ ........X...X.X...X...| .   i.i.i.i.i.i.i.i.i.i.i.i.i.i.i.i.i.i.i.i.i.i.i.i.",
"i.i.i.i.i.i.i.i.i.i.i.i.i.i.i.i.i.i.& 1 F H H [ { ] X.X.X.X.o.X.X.X.X.X.X. .3 1 i.i.i.i.i.i.i.i.i.i.i.i.i.i.i.i.i.i.i.i.i.i.i.i.",
"i.i.i.i.i.i.i.i.i.i.i.i.i.i.i.i.  . F ' [ H H [ X.X.X.X.o.X.X.X.X.X.X.X.X.X.o.| .   i.i.i.i.i.i.i.i.i.i.i.i.i.i.i.i.i.i.i.i.i.i.",
"i.i.i.i.i.i.i.i.i.i.i.i.i.i.i.i.  . F [ H H G [ ..X.X.X.X.X.X.X.X.X.X.X.X.X.X.| @   i.i.i.i.i.i.i.i.i.i.i.i.i.i.i.i.i.i.i.i.i.i.",
"i.i.i.i.i.i.i.i.i.i.i.i.i.i.i.i.  . G [ [ [ H [ X.X.X.X.X.X.X.X.X.X.X.X.o.X.o.| .   i.i.i.i.i.i.i.i.i.i.i.i.i.i.i.i.i.i.i.i.i.i.",
"i.i.i.i.i.i.i.i.i.i.i.i.i.i.i.i.    8 x z x G [ ..X.X.X.X.X.X.X.X.X... .v v ..| .   i.i.i.i.i.i.i.i.i.i.i.i.i.i.i.i.i.i.i.i.i.i.",
"i.i.i.i.i.i.i.i.i.i.i.i.i.i.i.i.            F [ ..X.X.X.X.X.X.X.o.X.o.| .    . ..   i.i.i.i.i.i.i.i.i.i.i.i.i.i.i.i.i.i.i.i.i.i.",
"i.i.i.i.i.i.i.i.i.i.i.i.i.i.i.i.  . O.O.. . F [ X.X.X.X.X.X.X.X.X.X.X.| . .  .| .   i.i.i.i.i.i.i.i.i.i.i.i.i.i.i.i.i.i.i.i.i.i.",
"i.i.i.i.i.i.i.i.i.i.i.i.i.i.i.i.  % >.>.%   F [ ..X.X.X.X.X.X.X.X.X.o.| . .  . ..   i.i.i.i.i.i.i.i.i.i.i.i.i.i.i.i.i.i.i.i.i.i.",
"i.i.i.i.i.i.i.i.i.i.i.i.i.i.i.i.  % :.:.% . F [ X.X.X.X.X.X.X.X.X.X.X.| .   2 3     i.i.i.i.i.i.i.i.i.i.i.i.i.i.i.i.i.i.i.i.i.i.",
"i.i.i.i.i.i.i.i.i.i.i.i.i.i.i.i.  % ;.:.%   F ] ..X.X.X.X.X.X.X.X.X.X.| .           i.i.i.i.i.i.i.i.i.i.i.i.i.i.i.i.i.i.i.i.i.i.",
"i.i.i.i.i.i.i.i.i.i.i.i.i.i.i.i.  % 2.2.% . F [ ..X.X.X.X.X.X.X.X.X.X.| . X @.@.+   i.i.i.i.i.i.i.i.i.i.i.i.i.i.i.i.i.i.i.i.i.i.",
"i.i.i.i.i.i.i.i.i.i.i.i.i.i.i.i.  % 2.2.% . F [ X.X.X.X.X.X.X.X.X.X.X.| . X >.>.%   i.i.i.i.i.i.i.i.i.i.i.i.i.i.i.i.i.i.i.i.i.i.",
"i.i.i.i.i.i.i.i.i.i.i.i.i.i.i.i.  % 2.2.% . F [ X.X.X.o.X.X.X.X.X.X.] G . % 2.2.%   i.i.i.i.i.i.i.i.i.i.i.i.i.i.i.i.i.i.i.i.i.i.",
"i.i.i.i.i.i.i.i.i.i.i.i.i.i.i.i.  % 2.2.% . F [ ..X.X.X.X.X.X.X... .[ F . % 2.2.%   i.i.i.i.i.i.i.i.i.i.i.i.i.i.i.i.i.i.i.i.i.i.",
"i.i.i.i.i.i.i.i.i.i.i.i.i.i.i.i.  % 9.9.%   G ] X.X.o.o.o.X.o.X.{ [ [ G   % 9.9.%   i.i.i.i.i.i.i.i.i.i.i.i.i.i.i.i.i.i.i.i.i.i.",
"i.i.i.i.i.i.i.i.i.i.i.i.i.i.i.i.  % $.$.%   c D ' { ] ] ] ] ] ] v v v c   % $.$.%   i.i.i.i.i.i.i.i.i.i.i.i.i.i.i.i.i.i.i.i.i.i.",
"i.i.i.i.i.i.i.i.i.i.i.i.i.i.i.i.i.i.    i.i.                            i.i.    i.i.i.i.i.i.i.i.i.i.i.i.i.i.i.i.i.i.i.i.i.i.i.i.",
"i.i.i.i.i.i.i.i.i.i.i.i.i.i.i.i.i.i.    i.i.    > w w w w w w w e >     i.i.    i.i.i.i.i.i.i.i.i.i.i.i.i.i.i.i.i.i.i.i.i.i.i.i.",
"i.i.i.i.i.i.i.i.i.i.i.i.i.i.i.i.i.i.i.i.i.i.  o U ( ( ( ) ) R R ~ Q o   i.i.i.i.i.i.i.i.i.i.i.i.i.i.i.i.i.i.i.i.i.i.i.i.i.i.i.i.",
"i.i.i.i.i.i.i.i.i.i.i.i.i.i.i.i.i.i.i.i.i.i.  o U Y Y U I I E _ ~ W o   i.i.i.i.i.i.i.i.i.i.i.i.i.i.i.i.i.i.i.i.i.i.i.i.i.i.i.i.",
"i.i.i.i.i.i.i.i.i.i.i.i.i.i.i.i.i.i.i.i.i.i.  o U Y ( U     Q ` ~ Q o   i.i.i.i.i.i.i.i.i.i.i.i.i.i.i.i.i.i.i.i.i.i.i.i.i.i.i.i.",
"i.i.i.i.i.i.i.i.i.i.i.i.i.i.i.i.i.i.i.i.i.i.  o U Y r t   O a s Q Q o   i.i.i.i.i.i.i.i.i.i.i.i.i.i.i.i.i.i.i.i.i.i.i.i.i.i.i.i.",
"i.i.i.i.i.i.i.i.i.i.i.i.i.i.i.i.i.i.i.i.i.i.  o U Y o   i.i.    Q Q o   i.i.i.i.i.i.i.i.i.i.i.i.i.i.i.i.i.i.i.i.i.i.i.i.i.i.i.i.",
"i.i.i.i.i.i.i.i.i.i.i.i.i.i.i.i.i.i.            w w     i.i.    e e             i.i.i.i.i.i.i.i.i.i.i.i.i.i.i.i.i.i.i.i.i.i.i.i.",
"i.i.i.i.i.i.i.i.i.i.i.i.i.i.i.i.i.i.                    i.i.                    i.i.i.i.i.i.i.i.i.i.i.i.i.i.i.i.i.i.i.i.i.i.i.i.",
"i.i.i.i.i.i.i.i.i.i.i.i.i.i.i.i.    4 0 0 0 0 0 4 4     i.i.    4 0 0 0 4 0 m m     i.i.i.i.i.i.i.i.i.i.i.i.i.i.i.i.i.i.i.i.i.i.",
"i.i.i.i.i.i.i.i.i.i.i.i.i.i.i.i.  . q q b q n q n q     i.i.    q b b q b b J N .   i.i.i.i.i.i.i.i.i.i.i.i.i.i.i.i.i.i.i.i.i.i.",
"i.i.i.i.i.i.i.i.i.i.i.i.i.i.i.i.    . . . . . . . .     i.i.    . . . . . . + +     i.i.i.i.i.i.i.i.i.i.i.i.i.i.i.i.i.i.i.i.i.i.",
"i.i.i.i.i.i.i.i.i.i.i.i.i.i.i.i.                        i.i.                        i.i.i.i.i.i.i.i.i.i.i.i.i.i.i.i.i.i.i.i.i.i."
};
