/* XPM */
static char *dummy[]={
"64 64 106 2",
"Qt c None",
".# c #010000",
"#i c #030207",
".c c #040509",
".V c #0a0404",
".a c #0a0609",
".b c #0d0807",
".l c #0d0a0a",
"#n c #10141f",
"#h c #110919",
".j c #110d0c",
"#p c #121223",
".k c #130b11",
"#o c #131b25",
"#e c #160505",
".q c #190e16",
"#k c #191327",
"#b c #1a0707",
"#a c #1a1111",
"#. c #1c0a0a",
".O c #1c110e",
"#E c #1c1c34",
"#D c #1c2634",
".i c #1d1219",
"#f c #1f0708",
"#F c #1f1f3c",
"#C c #1f2b3c",
".o c #21171e",
"#d c #220708",
".g c #22181f",
".h c #241a21",
"#z c #262646",
"#c c #270b0b",
".n c #2a1c26",
"#l c #2c0d0d",
"#I c #2c1815",
".N c #2c1e1c",
".m c #2d1d28",
"#H c #311b18",
".r c #311d2b",
"#g c #350e0e",
".t c #35202e",
".S c #372030",
".7 c #392725",
".6 c #3a2c25",
"#w c #3a4e6a",
"#M c #3b211d",
".5 c #3b3026",
"#v c #3b3b6d",
"#y c #3c446f",
"#q c #3c516e",
".d c #3d2335",
".R c #3e2b28",
"#A c #3e3e74",
"#r c #3e5473",
"#L c #40231f",
".f c #402537",
"#s c #403f77",
"#u c #404077",
"#x c #405678",
"#B c #415a79",
"#N c #422420",
".s c #422639",
".U c #422c2b",
"#t c #42427a",
".e c #45283c",
"#G c #4a2923",
".p c #4a2b40",
"## c #4d3bd9",
".2 c #514334",
".T c #533a35",
".Z c #5b3e3a",
"#J c #5e342d",
".3 c #61503f",
".Y c #634440",
"#K c #643730",
".X c #6d4b47",
"#j c #7f585d",
".u c #9d6b65",
".w c #b17972",
"#m c #b39273",
".8 c #bb9a79",
".x c #bf827b",
".y c #c1847d",
".P c #cd8c84",
".9 c #cfa984",
".G c #dbaf8d",
".A c #dc958d",
".K c #ddb48e",
".M c #de988f",
".B c #e09790",
".1 c #e1b691",
".Q c #e2a492",
".v c #e39c92",
".4 c #e3ba92",
".z c #eca198",
".L c #eeae9a",
".W c #eeb29a",
".I c #eebf9a",
".H c #eec39a",
".E c #f0a49b",
".J c #f0c59b",
".F c #f3a99d",
".C c #f7aba0",
".D c #f8a7a0",
".0 c #faaaa1",
"QtQtQtQtQtQtQtQtQtQtQtQtQtQtQtQtQtQtQtQtQtQtQtQtQtQtQtQt.#.#.#.#.#.#.#.#.#.#.#.#.#.#.#.#.#.#.#.#QtQtQtQtQtQtQtQtQtQtQtQtQtQtQtQt",
"QtQtQtQtQtQtQtQtQtQtQtQtQtQtQtQtQtQtQtQtQtQtQtQtQtQtQtQt.a.a.a.a.a.a.b.a.a.a.#.a.#.c.a.#.#.a.a.#QtQtQtQtQtQtQtQtQtQtQtQtQtQtQtQt",
"QtQtQtQtQtQtQtQtQtQtQtQtQtQtQtQtQtQtQtQtQtQt.#.#.#.#.#.#.d.e.f.e.d.e.f.e.e.d.g.g.h.g.g.h.g.h.h.i.#.#QtQtQtQtQtQtQtQtQtQtQtQtQtQt",
"QtQtQtQtQtQtQtQtQtQtQtQtQtQtQtQtQtQtQtQtQtQt.j.k.j.k.l.k.d.e.e.e.e.e.e.e.e.e.m.n.m.n.h.h.h.h.h.o.a.aQtQtQtQtQtQtQtQtQtQtQtQtQtQt",
"QtQtQtQtQtQtQtQtQtQtQtQtQtQtQtQtQtQt.#.#.#.#.d.e.e.e.e.p.e.e.f.e.e.e.e.e.e.e.e.e.e.f.h.h.h.h.h.h.h.h.#.#QtQtQtQtQtQtQtQtQtQtQtQt",
"QtQtQtQtQtQtQtQtQtQtQtQtQtQtQtQtQtQt.q.q.q.i.f.e.e.e.e.e.e.e.e.e.e.e.e.e.e.e.e.e.e.e.r.m.h.h.h.h.h.o.l.lQtQtQtQtQtQtQtQtQtQtQtQt",
"QtQtQtQtQtQtQtQtQtQtQtQtQtQtQtQt.#.#.f.e.p.e.e.e.e.e.e.e.e.e.e.e.e.e.e.e.e.e.e.e.e.e.e.f.n.h.h.h.h.h.h.o.#.#QtQtQtQtQtQtQtQtQtQt",
"QtQtQtQtQtQtQtQtQtQtQtQtQtQtQt.#.i.h.f.e.e.e.e.e.e.e.e.e.e.e.e.e.e.e.e.e.e.e.e.e.e.e.e.f.h.h.h.h.h.h.h.h.k.l.#QtQtQtQtQtQtQtQtQt",
"QtQtQtQtQtQtQtQtQtQtQtQtQtQt.#.a.s.p.e.e.e.e.e.e.e.e.e.e.e.e.e.e.e.e.e.e.e.e.e.e.e.e.e.f.g.o.h.h.h.h.h.h.h.h.#.#QtQtQtQtQtQtQtQt",
"QtQtQtQtQtQtQtQtQtQtQtQtQtQtQtQt.q.o.f.e.e.e.e.e.e.e.e.e.e.e.e.e.e.e.e.e.e.f.o.o.f.e.e.f.d.t.h.h.h.h.h.h.h.i.#.#QtQtQtQtQtQtQtQt",
"QtQtQtQtQtQtQtQtQtQtQtQtQtQtQtQt.#.#.f.e.e.e.e.e.e.e.e.e.e.e.e.e.e.e.e.e.e.d.#.#.f.e.e.e.e.s.h.o.h.h.h.h.h.h.#.#QtQtQtQtQtQtQtQt",
"QtQtQtQtQtQtQtQtQtQtQtQtQtQtQtQtQtQt.k.k.k.k.k.k.k.k.k.k.k.k.k.k.k.k.k.k.k.i.u.u.i.q.f.e.e.s.n.h.h.h.h.h.h.h.#.#QtQtQtQtQtQtQtQt",
"QtQtQtQtQtQtQtQtQtQtQtQtQtQtQtQtQtQt.#.#.#.#.#.#.#.#.#.#.#.#.#.#.#.#.#.#.#.j.v.v.l.#.d.e.e.f.h.o.h.h.h.h.h.h.#.#QtQtQtQtQtQtQtQt",
"QtQtQtQtQtQtQtQtQtQtQtQtQtQtQtQtQtQtQtQt.#.l.w.x.x.x.x.x.x.x.x.x.x.x.x.x.x.y.z.A.j.#.f.e.e.s.n.h.h.h.h.h.h.i.c.#QtQtQtQtQtQtQtQt",
"QtQtQtQtQtQtQtQtQtQtQtQtQtQtQtQtQtQtQtQt.#.j.B.C.D.E.F.F.F.E.C.E.F.F.E.F.E.F.E.A.j.#.f.e.e.f.h.h.h.h.h.h.h.h.#.#QtQtQtQtQtQtQtQt",
"QtQtQtQtQtQtQtQtQtQtQtQtQtQtQtQtQtQtQtQt.#.j.G.H.I.H.I.I.I.I.I.H.I.I.I.I.J.I.E.A.a.#.d.e.e.s.h.h.h.h.h.h.h.i.c.#QtQtQtQtQtQtQtQt",
"QtQtQtQtQtQtQtQtQtQtQtQtQtQtQtQtQtQtQtQt.#.j.K.J.H.H.H.H.H.H.H.H.H.H.H.H.H.I.L.M.N.O.d.d.e.e.n.h.h.h.h.h.h.h.#.#QtQtQtQtQtQtQtQt",
"QtQtQtQtQtQtQtQtQtQtQtQtQtQtQtQtQtQtQtQt.#.j.K.J.H.H.H.H.H.H.H.H.H.H.H.H.H.H.H.I.v.P.a.#.d.e.e.d.h.h.h.h.h.g.#.#QtQtQtQtQtQtQtQt",
"QtQtQtQtQtQtQtQtQtQtQtQtQtQtQtQtQtQtQtQt.c.j.K.J.H.H.H.H.H.H.H.H.H.H.H.H.H.H.H.H.L.Q.R.N.t.S.e.e.m.h.h.h.i.i.#.#QtQtQtQtQtQtQtQt",
"QtQtQtQtQtQtQtQtQtQtQtQtQtQtQtQtQtQtQtQt.#.j.K.J.H.H.H.H.H.H.H.H.H.H.H.H.H.H.H.H.H.I.z.A.b.#.f.e.e.e.n.i.#.#QtQtQtQtQtQtQtQtQtQt",
"QtQtQtQtQtQtQtQtQtQtQtQtQtQtQtQtQtQtQtQt.#.j.K.J.H.H.H.H.H.H.H.H.H.H.H.H.H.H.H.J.H.H.F.Q.T.U.r.m.r.m.i.q.#.#QtQtQtQtQtQtQtQtQtQt",
"QtQtQtQtQtQtQtQtQtQtQtQtQtQtQtQtQtQtQtQt.#.j.K.J.H.H.H.H.H.H.H.H.H.H.H.H.H.H.H.H.H.H.H.H.F.B.V.#.#.#.#.#QtQtQtQtQtQtQtQtQtQtQtQt",
"QtQtQtQtQtQtQtQtQtQtQtQtQtQtQtQtQtQtQtQt.#.j.K.J.H.H.H.H.H.J.H.H.H.H.H.H.H.H.H.H.H.H.H.H.W.Q.X.Y.Y.Z.V.#QtQtQtQtQtQtQtQtQtQtQtQt",
"QtQtQtQtQtQtQtQtQtQtQtQtQtQtQtQtQtQtQtQt.#.j.K.J.J.H.H.H.H.H.H.H.H.H.H.H.H.H.H.H.H.H.H.H.H.H.C.D.0.v.l.#QtQtQtQtQtQtQtQtQtQtQtQt",
"QtQtQtQtQtQtQtQtQtQtQtQtQtQtQtQtQtQtQtQt.#.j.K.J.H.H.H.H.H.H.H.H.H.H.H.H.H.H.H.H.H.H.H.H.H.H.W.W.E.A.j.#QtQtQtQtQtQtQtQtQtQtQtQt",
"QtQtQtQtQtQtQtQtQtQtQtQtQtQtQtQtQtQtQtQt.#.j.1.J.H.H.H.H.H.H.H.H.H.H.H.H.H.H.H.H.H.H.H.H.H.H.H.H.C.v.j.#QtQtQtQtQtQtQtQtQtQtQtQt",
"QtQtQtQtQtQtQtQtQtQtQtQtQtQtQtQtQtQtQtQtQtQt.2.3.4.J.J.H.J.H.H.H.H.H.H.H.H.H.H.H.H.H.L.L.L.W.L.Q.2.ZQtQtQtQtQtQtQtQtQtQtQtQtQtQt",
"QtQtQtQtQtQtQtQtQtQtQtQtQtQtQtQtQtQtQtQtQtQt.#.b.K.J.J.J.J.J.J.J.H.J.J.J.J.J.J.J.H.J.E.E.z.E.E.B.b.#QtQtQtQtQtQtQtQtQtQtQtQtQtQt",
"QtQtQtQtQtQtQtQtQtQtQtQtQtQtQtQtQtQtQtQtQtQtQtQt.5.5.5.5.5.5.5.5.6.5.5.6.5.5.5.5.5.5.7.R.7.7.R.7QtQtQtQtQtQtQtQtQtQtQtQtQtQtQtQt",
"QtQtQtQtQtQtQtQtQtQtQtQtQtQtQtQtQtQtQtQtQtQtQtQt.#.#.#.c.#.#.#.#.#.#.#.#.#.#.#.#.#.#.#.#.#.#.#.#QtQtQtQtQtQtQtQtQtQtQtQtQtQtQtQt",
"QtQtQtQtQtQtQtQtQtQtQtQtQtQtQtQtQtQtQtQtQtQtQtQtQtQtQtQtQtQt.#.l.8.9.P.P.P.x.a.#QtQtQtQtQtQtQtQtQtQtQtQtQtQtQtQtQtQtQtQtQtQtQtQt",
"QtQtQtQtQtQtQtQtQtQtQtQtQtQtQtQtQtQtQtQtQtQtQtQtQtQtQtQtQtQt.b.O.9.1.B.M.v.P#..VQtQtQtQtQtQtQtQtQtQtQtQtQtQtQtQtQtQtQtQtQtQtQtQt",
"QtQtQtQtQtQtQtQtQtQtQtQtQtQtQtQtQtQtQtQtQtQtQtQtQtQt.#.#.#.######a.j.l.l.l.O####.#.#.#.#QtQtQtQtQtQtQtQtQtQtQtQtQtQtQtQtQtQtQtQt",
"QtQtQtQtQtQtQtQtQtQtQtQtQtQtQtQtQtQtQtQtQtQtQtQtQtQt#b#b#b#c#####d#e#e#b#e#f#####b#e#e#eQtQtQtQtQtQtQtQtQtQtQtQtQtQtQtQtQtQtQtQt",
"QtQtQtQtQtQtQtQtQtQtQtQtQtQtQtQtQtQtQtQtQtQtQtQt.#.V####################################.#.#QtQtQtQtQtQtQtQtQtQtQtQtQtQtQtQtQtQt",
"QtQtQtQtQtQtQtQtQtQtQtQtQtQtQtQtQtQtQtQtQtQtQtQt#c#g#####################################c#.QtQtQtQtQtQtQtQtQtQtQtQtQtQtQtQtQtQt",
"QtQtQtQtQtQtQtQtQtQtQtQtQtQtQtQtQtQtQtQtQtQt.#.V#############################################h#iQtQtQtQtQtQtQtQtQtQtQtQtQtQtQtQt",
"QtQtQtQtQtQtQtQtQtQtQtQtQtQtQtQtQtQtQtQtQtQt.##e#############################################h#iQtQtQtQtQtQtQtQtQtQtQtQtQtQtQtQt",
"QtQtQtQtQtQtQtQtQtQtQtQtQtQtQtQtQtQtQtQtQtQt.#.V#############################################h#iQtQtQtQtQtQtQtQtQtQtQtQtQtQtQtQt",
"QtQtQtQtQtQtQtQtQtQtQtQtQtQtQtQtQtQtQtQtQtQt.#.V#############################################i#iQtQtQtQtQtQtQtQtQtQtQtQtQtQtQtQt",
"QtQtQtQtQtQtQtQtQtQtQtQtQtQtQtQtQtQtQtQtQtQt.#.V####.#.V#############################i#i#i#i#i#iQtQtQtQtQtQtQtQtQtQtQtQtQtQtQtQt",
"QtQtQtQtQtQtQtQtQtQtQtQtQtQtQtQtQtQtQtQtQtQt.#.V####.V.V#############################h#h#j#j#h#iQtQtQtQtQtQtQtQtQtQtQtQtQtQtQtQt",
"QtQtQtQtQtQtQtQtQtQtQtQtQtQtQtQtQtQtQtQtQtQt.#.V####.V.V#############################i#k.v.v#k#iQtQtQtQtQtQtQtQtQtQtQtQtQtQtQtQt",
"QtQtQtQtQtQtQtQtQtQtQtQtQtQtQtQtQtQtQtQtQtQt.#.##g#l.#.V#############################h#k.B.B#k#iQtQtQtQtQtQtQtQtQtQtQtQtQtQtQtQt",
"QtQtQtQtQtQtQtQtQtQtQtQtQtQtQtQtQtQtQtQtQtQt.#.#.#.#.#.V#############################i#k.B.M#k#iQtQtQtQtQtQtQtQtQtQtQtQtQtQtQtQt",
"QtQtQtQtQtQtQtQtQtQtQtQtQtQtQtQtQtQtQtQtQtQt.#.l.w.w.b.V#############################h#k.K.K#k#iQtQtQtQtQtQtQtQtQtQtQtQtQtQtQtQt",
"QtQtQtQtQtQtQtQtQtQtQtQtQtQtQtQtQtQtQtQtQtQt.#.j.v.v.b.V#############################h#k.K.K#k#iQtQtQtQtQtQtQtQtQtQtQtQtQtQtQtQt",
"QtQtQtQtQtQtQtQtQtQtQtQtQtQtQtQtQtQtQtQtQtQt.#.j.K.K.j.V#############################h#k.K.K#k#iQtQtQtQtQtQtQtQtQtQtQtQtQtQtQtQt",
"QtQtQtQtQtQtQtQtQtQtQtQtQtQtQtQtQtQtQtQtQtQt.#.j.K.K.j.V#############################h#k.K.K#k#iQtQtQtQtQtQtQtQtQtQtQtQtQtQtQtQt",
"QtQtQtQtQtQtQtQtQtQtQtQtQtQtQtQtQtQtQtQtQtQt.#.j.4.4.j.##############################i#k.4.4#k#iQtQtQtQtQtQtQtQtQtQtQtQtQtQtQtQt",
"QtQtQtQtQtQtQtQtQtQtQtQtQtQtQtQtQtQtQtQtQtQt.#.j#m#m.j.##############################i#k#m#m#k#iQtQtQtQtQtQtQtQtQtQtQtQtQtQtQtQt",
"QtQtQtQtQtQtQtQtQtQtQtQtQtQtQtQtQtQtQtQtQtQtQtQt.#.#QtQt.#.#.#.#.#.#.#.#.#.#.#.#.#.#QtQt.#.#QtQtQtQtQtQtQtQtQtQtQtQtQtQtQtQtQtQt",
"QtQtQtQtQtQtQtQtQtQtQtQtQtQtQtQtQtQtQtQtQtQtQtQt.#.#QtQt.#.##n#o#p#p#p#p#p#p#p#n.#.#QtQt.#.#QtQtQtQtQtQtQtQtQtQtQtQtQtQtQtQtQtQt",
"QtQtQtQtQtQtQtQtQtQtQtQtQtQtQtQtQtQtQtQtQtQtQtQtQtQtQtQt.#.c#q#r#s#s#t#t#u#u#u#v.c.#QtQtQtQtQtQtQtQtQtQtQtQtQtQtQtQtQtQtQtQtQtQt",
"QtQtQtQtQtQtQtQtQtQtQtQtQtQtQtQtQtQtQtQtQtQtQtQtQtQtQtQt.#.c#w#r#x#y#z#z#v#A#A#v.c.#QtQtQtQtQtQtQtQtQtQtQtQtQtQtQtQtQtQtQtQtQtQt",
"QtQtQtQtQtQtQtQtQtQtQtQtQtQtQtQtQtQtQtQtQtQtQtQtQtQtQtQt.#.c#q#r#B#q.#.##v#u#A#v.c.#QtQtQtQtQtQtQtQtQtQtQtQtQtQtQtQtQtQtQtQtQtQt",
"QtQtQtQtQtQtQtQtQtQtQtQtQtQtQtQtQtQtQtQtQtQtQtQtQtQtQtQt.#.c#q#q#C#D.a.##E#F#A#v.c.#QtQtQtQtQtQtQtQtQtQtQtQtQtQtQtQtQtQtQtQtQtQt",
"QtQtQtQtQtQtQtQtQtQtQtQtQtQtQtQtQtQtQtQtQtQtQtQtQtQtQtQt.#.c#q#q.#.#QtQt.#.c#A#v.c.#QtQtQtQtQtQtQtQtQtQtQtQtQtQtQtQtQtQtQtQtQtQt",
"QtQtQtQtQtQtQtQtQtQtQtQtQtQtQtQtQtQtQtQtQtQtQtQt.#.#.#.#.#.##o#o.#.#QtQt.#.##p#p.#.#.#.#.#.#QtQtQtQtQtQtQtQtQtQtQtQtQtQtQtQtQtQt",
"QtQtQtQtQtQtQtQtQtQtQtQtQtQtQtQtQtQtQtQtQtQtQtQt.#.#.#.#.#.#.#.#.#.#QtQt.#.#.#.#.#.#.#.#.#.#QtQtQtQtQtQtQtQtQtQtQtQtQtQtQtQtQtQt",
"QtQtQtQtQtQtQtQtQtQtQtQtQtQtQtQtQtQtQtQtQtQt.#.##G#G#H#I#H#H#H#I.#.#QtQt.#.##I#I#H#H#H#H#H#I.#.#QtQtQtQtQtQtQtQtQtQtQtQtQtQtQtQt",
"QtQtQtQtQtQtQtQtQtQtQtQtQtQtQtQtQtQtQtQtQtQt.#.V#J#K#L#L#M#L#L#M.#.#QtQt.#.##M#N#M#N#M#L#M#M.V.#QtQtQtQtQtQtQtQtQtQtQtQtQtQtQtQt",
"QtQtQtQtQtQtQtQtQtQtQtQtQtQtQtQtQtQtQtQtQtQt.#.#.l.l.V.V.V.V.V.V.#.#QtQt.#.#.V.V.V.V.V.V.V.V.#.#QtQtQtQtQtQtQtQtQtQtQtQtQtQtQtQt",
"QtQtQtQtQtQtQtQtQtQtQtQtQtQtQtQtQtQtQtQtQtQt.#.#.#.#.#.#.#.#.#.#.#.#QtQt.#.#.#.#.#.#.#.#.#.#.#.#QtQtQtQtQtQtQtQtQtQtQtQtQtQtQtQt"};
